<?xml version="1.0" encoding="utf-8"?>
<!-- Generator: Adobe Illustrator 21.0.0, SVG Export Plug-In . SVG Version: 6.00 Build 0)  -->
<svg version="1.1" id="Layer_1" xmlns="http://www.w3.org/2000/svg" xmlns:xlink="http://www.w3.org/1999/xlink" x="0px" y="0px"
	 viewBox="0 0 1671.7 674.3" style="enable-background:new 0 0 1671.7 674.3;" xml:space="preserve">
<style type="text/css">
	.st0{fill:#F4F5F9;}
	.st1{fill:url(#SVGID_1_);}
	.st2{fill:url(#SVGID_2_);}
	.st3{fill:#34C92F;}
	.st4{fill:#18516B;}
	.st5{fill:#FD3456;}
	.st6{fill:#EF6762;}
	.st7{fill:#D34242;}
	.st8{fill:#24D6DA;}
	.st9{fill:#F9DC5E;}
	.st10{fill:#C8E8E2;}
	.st11{fill:#EEFAFF;}
	.st12{fill:#EEFFFF;}
	.st13{fill:#295559;}
	.st14{fill:#A3E2DA;}
	.st15{opacity:0.63;fill:#FFFFFF;}
	.st16{fill:#A5DBD5;}
</style>
<title>art_main</title>
<g>
	<path class="st0" d="M1049,367.1h-94c0.6-3,2.2-5.9,5-7.2c2.8-1.3,6.1-1.2,8.8,0.2c0.3-8.4,6.7-16.3,14.8-18.4s17.5,1.8,21.8,9.1
		c3.6-5,10.4-7.3,16.2-5.5c5.8,1.8,10.2,7.5,10.4,13.6c3-2,7-2.3,10.2-0.7C1045.6,359.7,1048.7,363.5,1049,367.1z"/>
</g>
<g>
	<linearGradient id="SVGID_1_" gradientUnits="userSpaceOnUse" x1="765.574" y1="383.1567" x2="766.9885" y2="427.7141">
		<stop  offset="0" style="stop-color:#FFD2C6"/>
		<stop  offset="1" style="stop-color:#A53668"/>
	</linearGradient>
	<path class="st1" d="M798.9,387.8h-66.5c0.4-2.1,1.6-4.2,3.5-5.1s4.3-0.9,6.2,0.1c0.2-6,4.7-11.5,10.5-13
		c5.8-1.5,12.4,1.3,15.4,6.4c2.5-3.5,7.4-5.1,11.5-3.9c4.1,1.3,7.2,5.3,7.3,9.7c2.1-1.4,4.9-1.6,7.2-0.5
		C796.5,382.6,798.7,385.3,798.9,387.8z"/>
</g>
<g>
	<path class="st0" d="M551.3,377.9h-94.5c1.1-3.1,3.4-6.3,6.5-7.4c3.1-1.1,6.7-0.6,9.5,1.2c1.2-3.5,3.9-6.5,7.3-7.9
		c3.4-1.5,7.4-1.4,10.8,0.2c1.5-8.8,10.4-15.3,19.3-14.9c8.9,0.3,16.9,6.8,20.1,15.2C538.9,362.6,549.6,369.3,551.3,377.9z"/>
</g>
<g>
	<linearGradient id="SVGID_2_" gradientUnits="userSpaceOnUse" x1="1201.1217" y1="373.4755" x2="1207.3871" y2="431.7423">
		<stop  offset="0" style="stop-color:#FFD2C6"/>
		<stop  offset="1" style="stop-color:#A53668"/>
	</linearGradient>
	<path class="st2" d="M1231.7,382.7h-59.2c0.7-2,2.1-3.9,4.1-4.6c2-0.7,4.2-0.4,5.9,0.8c0.7-2.2,2.5-4.1,4.6-5
		c2.1-0.9,4.7-0.9,6.8,0.1c0.9-5.5,6.5-9.6,12.1-9.4s10.6,4.3,12.6,9.5C1223.9,373.2,1230.7,377.3,1231.7,382.7z"/>
</g>
<path class="st3" d="M875.4,451.7h-84.3c-2.8-2.3-5.6-5.4-7-8.8c-1.4-3.4-1.4-7.5,0.8-10.4c1.6-2.1,4.2-3.3,6.2-5.1
	c2.8-2.5,4.3-6.1,6.4-9.3c2.1-3.2,5.2-6.1,9-6c3,0.1,5.6,2.1,8.6,2.4c4.4,0.4,8.2-2.9,12.2-4.8c6.8-3.2,14.8-2.2,22-0.1
	c11.3,3.2,22.4,9.3,28.3,19.5C881.6,436.1,880.2,445.1,875.4,451.7z"/>
<path class="st3" d="M194.6,430.2c-4.8-1.5-9.2-5.2-10-10.2c-0.6-3.7,0.6-7.6-0.7-11c-1.2-3.1-4.4-5-6.6-7.5
	c-6.1-6.8-4.3-19,3.5-23.8c4.2-2.6,9.7-3.2,13.1-6.8c3.1-3.3,3.7-8.2,5.6-12.3c2.5-5.5,7.8-9.8,13.8-10.2c6-0.4,12.2,3.8,13.2,9.8
	c0.5,3-0.3,6.1,0.2,9.1c0.8,5.5,5.4,9.6,9.3,13.5c3.9,4,7.6,9.4,6.1,14.7c-1.1,3.8-4.7,6.7-4.9,10.7c-0.2,3.3,2,6.2,2.7,9.4
	c1.5,6.7-4,13.5-10.5,15.7c-6.1,2.2-12.5,1.3-18.7,0.5C205.3,431.2,199.7,431.8,194.6,430.2z"/>
<polygon class="st4" points="221.3,390.8 219.8,389.3 210.3,398.5 210.3,379.1 208.2,379.1 208.2,419.2 196.7,403 195,404.2 
	208.2,422.9 208.2,451.7 210.3,451.7 210.3,401.5 "/>
<rect x="1452.1" y="236.6" class="st5" width="24" height="215.1"/>
<rect x="1476.1" y="236.6" class="st4" width="13.1" height="215.1"/>
<rect x="1452.1" y="246.7" transform="matrix(-1 -1.224647e-16 1.224647e-16 -1 2928.1797 500.4276)" class="st6" width="24" height="7"/>
<rect x="1476.1" y="246.7" transform="matrix(-1 -1.224647e-16 1.224647e-16 -1 2965.3186 500.4276)" class="st7" width="13.1" height="7"/>
<rect x="1452.1" y="263.2" transform="matrix(-1 -1.224647e-16 1.224647e-16 -1 2928.1797 533.4056)" class="st6" width="24" height="7"/>
<rect x="1476.1" y="263.2" transform="matrix(-1 -1.224647e-16 1.224647e-16 -1 2965.3186 533.4056)" class="st7" width="13.1" height="7"/>
<rect x="1400.4" y="236.6" class="st5" width="24" height="215.1"/>
<rect x="1424.4" y="236.6" class="st4" width="13.1" height="215.1"/>
<path class="st8" d="M1226,294.6c-3.8-12.8-5.9-22.4-7-27.6c0.1,0,0.3,0,0.4-0.1c3.9-0.7,6.6-4.4,5.9-8.4c-0.7-3.9-4.4-6.6-8.4-5.9
	c-10.1,1.7-20.3,3-30.5,3.9c2.6,0.9,5,2.8,5.9,5.4c0.5,1.2,0.6,2.6,0.5,3.9c-8,0.8-16.1,1.3-24.2,1.6c0.9,10.3,2,20.6,3.3,30.9l0,0
	c0,0.2,0.1,0.5,0.1,0.7c0.1,0.6,0.1,1.2,0.2,1.8l0,0c6.1,50.1,15.8,102.2,28.5,151h110.4C1260.4,390.3,1236.6,330.1,1226,294.6z"/>
<path class="st5" d="M1172.2,300.7c-1.3-11.1-2.6-22.2-3.5-33.4c-24.2,0.8-48.5-0.8-72.4-4.9h0c0,0-0.5,3.2-1.8,9.1
	c-5.6,25.7-26.6,102-91.3,180.2h154h43.6C1187.8,402.1,1178.3,351.6,1172.2,300.7z"/>
<rect x="1195.7" y="340.7" class="st9" width="228.7" height="111"/>
<rect x="1424.4" y="340.7" class="st8" width="37.6" height="111"/>
<g>
	<rect x="1217.5" y="362.1" class="st10" width="77.3" height="35.6"/>
	<path class="st11" d="M1214.6,400.6h83v-41.4h-83V400.6z M1217.5,362.1h77.3v35.6h-77.3V362.1z"/>
	<rect x="1321.7" y="362.1" class="st10" width="77.3" height="35.6"/>
	<path class="st11" d="M1318.8,359.2v41.4h83v-41.4H1318.8z M1399,397.7h-77.3v-35.6h77.3V397.7z"/>
</g>
<path class="st5" d="M1376.4,415.9L1376.4,415.9c-4.8,0-8.6,3.9-8.6,8.6v27.2h17.2v-27.2C1385,419.8,1381.2,415.9,1376.4,415.9z"/>
<path class="st5" d="M1406.1,415.9h-6.8c-2.9,0-5.2,2.3-5.2,5.2v30.6h17.2v-30.6C1411.3,418.2,1409,415.9,1406.1,415.9z"/>
<rect x="1247.6" y="316.3" class="st5" width="69.3" height="24.5"/>
<rect x="1298.3" y="316.3" class="st4" width="18.6" height="24.5"/>
<rect x="1344.9" y="316.3" class="st5" width="69.3" height="24.5"/>
<rect x="1395.7" y="316.3" class="st4" width="18.6" height="24.5"/>
<path class="st9" d="M1192.4,261.9c-1-2.6-3.3-4.5-5.9-5.4c-29.7,2.5-59.5,1.2-89-3.9c-4-0.7-7.7,2-8.4,5.9c-0.7,3.9,2,7.7,5.9,8.4
	c20.6,3.5,41.4,5.3,62.2,5.3c11.3,0,22.5-0.5,33.7-1.6C1192.8,268.2,1193.5,264.8,1192.4,261.9z"/>
<rect x="1400.4" y="246.7" transform="matrix(-1 -1.224647e-16 1.224647e-16 -1 2824.8396 500.4276)" class="st6" width="24" height="7"/>
<rect x="1424.4" y="246.7" transform="matrix(-1 -1.224647e-16 1.224647e-16 -1 2861.9785 500.4276)" class="st7" width="13.1" height="7"/>
<rect x="1400.4" y="263.2" transform="matrix(-1 -1.224647e-16 1.224647e-16 -1 2824.8396 533.4056)" class="st6" width="24" height="7"/>
<rect x="1424.4" y="263.2" transform="matrix(-1 -1.224647e-16 1.224647e-16 -1 2861.9785 533.4056)" class="st7" width="13.1" height="7"/>
<rect x="230.1" y="314.2" class="st9" width="131.6" height="137.5"/>
<rect x="361.7" y="314.2" class="st8" width="54" height="137.5"/>
<rect x="240.1" y="329.2" class="st4" width="121.6" height="12.9"/>
<rect x="361.7" y="329.2" class="st4" width="43.2" height="12.9"/>
<rect x="240.1" y="358.8" class="st4" width="121.6" height="12.9"/>
<rect x="361.7" y="358.8" class="st4" width="43.2" height="12.9"/>
<rect x="240.1" y="388.3" class="st4" width="121.6" height="12.9"/>
<rect x="361.7" y="388.3" class="st4" width="43.2" height="12.9"/>
<rect x="240.1" y="326.7" class="st12" width="121.6" height="12.9"/>
<rect x="361.7" y="326.7" class="st10" width="43.2" height="12.9"/>
<rect x="240.1" y="356.3" class="st12" width="121.6" height="12.9"/>
<rect x="361.7" y="356.3" class="st10" width="43.2" height="12.9"/>
<rect x="240.1" y="385.9" class="st12" width="121.6" height="12.9"/>
<rect x="361.7" y="385.9" class="st10" width="43.2" height="12.9"/>
<path class="st4" d="M383.5,415.1L383.5,415.1c-3.2,0-5.7,2.6-5.7,5.7v30.9h11.5v-30.9C389.2,417.7,386.6,415.1,383.5,415.1z"/>
<path class="st13" d="M401.2,415.1L401.2,415.1c-3.2,0-5.7,2.6-5.7,5.7v30.9h11.5v-30.9C406.9,417.7,404.4,415.1,401.2,415.1z"/>
<path class="st5" d="M381.5,415.1L381.5,415.1c-3.2,0-5.7,2.6-5.7,5.7v30.9h11.5v-30.9C387.2,417.7,384.6,415.1,381.5,415.1z"/>
<path class="st5" d="M399.2,415.1L399.2,415.1c-3.2,0-5.7,2.6-5.7,5.7v30.9h11.5v-30.9C404.9,417.7,402.4,415.1,399.2,415.1z"/>
<rect x="246.7" y="291.6" class="st4" width="42.7" height="22.6"/>
<rect x="289.4" y="291.6" class="st8" width="15" height="22.6"/>
<rect x="327.9" y="291.6" class="st4" width="42.7" height="22.6"/>
<rect x="370.6" y="291.6" class="st8" width="15" height="22.6"/>
<g>
	<rect x="252.6" y="427.3" class="st5" width="19.6" height="24.4"/>
	<polygon class="st5" points="272.2,427.3 272.2,419.2 242.3,419.2 242.3,451.7 252.6,451.7 252.6,427.3 	"/>
	<polygon class="st5" points="272.2,419.2 272.2,427.3 272.2,451.7 282.5,451.7 282.5,427.3 302.2,427.3 302.2,419.2 	"/>
	<rect x="264.2" y="427.3" class="st5" width="38" height="24.4"/>
</g>
<g>
	<polygon class="st12" points="330.3,419.2 320.6,432.9 330.4,432.9 340.2,419.2 	"/>
	<polygon class="st12" points="343.9,419.2 334.2,432.9 339,432.9 348.7,419.2 	"/>
	<polygon class="st12" points="351.7,420.1 342.7,432.9 351.7,432.9 	"/>
	<polygon class="st12" points="317,419.2 317,432.9 320.6,432.9 330.3,419.2 	"/>
	<polygon class="st12" points="340.2,419.2 330.4,432.9 334.2,432.9 343.9,419.2 	"/>
	<polygon class="st12" points="351.7,419.2 348.7,419.2 339,432.9 342.7,432.9 351.7,420.1 	"/>
</g>
<polygon class="st5" points="688.2,161.1 681.9,161.1 681.9,451.7 752.5,451.7 752.5,161.1 "/>
<polygon class="st13" points="773.5,161.1 752.5,161.1 752.5,451.7 779.8,451.7 779.8,161.1 "/>
<rect x="752.5" y="130.1" class="st8" width="21.1" height="31.1"/>
<rect x="688.2" y="130.1" class="st0" width="64.3" height="31.1"/>
<rect x="688.7" y="340.6" class="st10" width="63.2" height="13.1"/>
<rect x="688.7" y="312.2" class="st10" width="63.2" height="13.1"/>
<rect x="688.7" y="283.8" class="st10" width="63.2" height="13.1"/>
<rect x="688.7" y="298" class="st10" width="63.2" height="13.1"/>
<rect x="688.7" y="326.4" class="st10" width="63.2" height="13.1"/>
<rect x="688.7" y="383.2" class="st10" width="63.2" height="13.1"/>
<rect x="688.7" y="354.8" class="st10" width="63.2" height="13.1"/>
<rect x="688.7" y="369" class="st10" width="63.2" height="13.1"/>
<rect x="688.7" y="198.6" class="st10" width="63.2" height="13.1"/>
<rect x="688.7" y="269.6" class="st10" width="63.2" height="13.1"/>
<rect x="688.7" y="184.4" class="st10" width="63.2" height="13.1"/>
<rect x="688.7" y="397.4" class="st10" width="63.2" height="13.1"/>
<rect x="688.7" y="170.2" class="st10" width="63.2" height="13.1"/>
<rect x="688.7" y="212.8" class="st10" width="63.2" height="13.1"/>
<rect x="688.7" y="255.4" class="st10" width="63.2" height="13.1"/>
<rect x="688.7" y="227" class="st10" width="63.2" height="13.1"/>
<rect x="688.7" y="241.2" class="st10" width="63.2" height="13.1"/>
<rect x="753" y="184.4" class="st9" width="20" height="13.1"/>
<rect x="753" y="255.4" class="st14" width="20" height="13.1"/>
<rect x="753" y="241.2" class="st14" width="20" height="13.1"/>
<rect x="753" y="269.6" class="st14" width="20" height="13.1"/>
<rect x="753" y="227" class="st14" width="20" height="13.1"/>
<rect x="753" y="198.6" class="st9" width="20" height="13.1"/>
<rect x="753" y="212.8" class="st9" width="20" height="13.1"/>
<rect x="753" y="397.4" class="st14" width="20" height="13.1"/>
<rect x="753" y="283.8" class="st14" width="20" height="13.1"/>
<rect x="753" y="170.2" class="st9" width="20" height="13.1"/>
<path class="st12" d="M753,169.1h-1.1h-64.3v14.2v1.1v13.1v1.1v13.1v1.1v13.1v1.1v13.1v1.1v13.1v1.1v13.1v1.1v13.1v1.1v13.1v1.1
	v13.1v1.1v13.1v1.1v13.1v1.1v13.1v1.1v13.1v1.1v13.1v1.1v13.1v1.1v14.2h64.3h1.1h21.1v-14.2v-1.1v-13.1v-1.1V369v-1.1v-13.1v-1.1
	v-13.1v-1.1v-13.1v-1.1v-13.1v-1.1V298v-1.1v-13.1v-1.1v-13.1v-1.1v-13.1v-1.1v-13.1v-1.1V227v-1.1v-13.1v-1.1v-13.1v-1.1v-13.1
	v-1.1v-14.2H753z M773,410.5h-20v-13.1h20V410.5z M751.9,410.5h-63.2v-13.1h63.2V410.5z M688.7,170.2h63.2v13.1h-63.2V170.2z
	 M688.7,184.4h63.2v13.1h-63.2V184.4z M688.7,198.6h63.2v13.1h-63.2V198.6z M688.7,212.8h63.2v13.1h-63.2V212.8z M688.7,227h63.2
	v13.1h-63.2V227z M688.7,241.2h63.2v13.1h-63.2V241.2z M688.7,255.4h63.2v13.1h-63.2V255.4z M688.7,269.6h63.2v13.1h-63.2V269.6z
	 M688.7,283.8h63.2v13.1h-63.2V283.8z M688.7,298h63.2v13.1h-63.2V298z M688.7,312.2h63.2v13.1h-63.2V312.2z M688.7,326.4h63.2v13.1
	h-63.2V326.4z M688.7,340.6h63.2v13.1h-63.2V340.6z M688.7,354.8h63.2v13.1h-63.2V354.8z M688.7,369h63.2v13.1h-63.2V369z
	 M688.7,383.2h63.2v13.1h-63.2V383.2z M773,396.3h-20v-13.1h20V396.3z M773,382.1h-20V369h20V382.1z M773,367.9h-20v-13.1h20V367.9z
	 M773,353.7h-20v-13.1h20V353.7z M773,339.5h-20v-13.1h20V339.5z M773,325.3h-20v-13.1h20V325.3z M773,311.1h-20V298h20V311.1z
	 M773,296.9h-20v-13.1h20V296.9z M773,282.7h-20v-13.1h20V282.7z M773,268.5h-20v-13.1h20V268.5z M773,254.3h-20v-13.1h20V254.3z
	 M773,240.1h-20V227h20V240.1z M773,225.9h-20v-13.1h20V225.9z M773,211.7h-20v-13.1h20V211.7z M773,197.5h-20v-13.1h20V197.5z
	 M773,183.3h-20v-13.1h20V183.3z"/>
<rect x="753" y="369" class="st14" width="20" height="13.1"/>
<rect x="753" y="354.8" class="st14" width="20" height="13.1"/>
<rect x="753" y="383.2" class="st14" width="20" height="13.1"/>
<rect x="753" y="298" class="st14" width="20" height="13.1"/>
<rect x="753" y="312.2" class="st14" width="20" height="13.1"/>
<rect x="753" y="340.6" class="st14" width="20" height="13.1"/>
<rect x="753" y="326.4" class="st14" width="20" height="13.1"/>
<rect x="757.8" y="419.9" class="st10" width="15.7" height="11.4"/>
<g>
	<rect x="693.6" y="426" class="st4" width="23.5" height="25.6"/>
	<polygon class="st4" points="717.2,426 717.2,419.9 688.2,419.9 688.2,451.7 693.6,451.7 693.6,426 	"/>
	<rect x="717.2" y="419.9" class="st4" width="29" height="6.1"/>
	<rect x="717.2" y="426" class="st4" width="29" height="25.6"/>
</g>
<polygon class="st5" points="735,247.7 728.8,247.7 728.8,451.7 799.4,451.7 799.4,247.7 "/>
<polygon class="st4" points="820.4,247.7 799.4,247.7 799.4,451.7 826.7,451.7 826.7,247.7 "/>
<rect x="735.6" y="340.6" class="st10" width="63.2" height="13.1"/>
<rect x="735.6" y="312.2" class="st10" width="63.2" height="13.1"/>
<rect x="735.6" y="283.8" class="st10" width="63.2" height="13.1"/>
<rect x="735.6" y="298" class="st10" width="63.2" height="13.1"/>
<rect x="735.6" y="326.4" class="st10" width="63.2" height="13.1"/>
<rect x="735.6" y="383.2" class="st10" width="63.2" height="13.1"/>
<rect x="735.6" y="354.8" class="st10" width="63.2" height="13.1"/>
<rect x="735.6" y="369" class="st10" width="63.2" height="13.1"/>
<rect x="735.6" y="269.6" class="st10" width="63.2" height="13.1"/>
<rect x="735.6" y="397.4" class="st10" width="63.2" height="13.1"/>
<rect x="735.6" y="255.4" class="st10" width="63.2" height="13.1"/>
<rect x="799.9" y="255.4" class="st9" width="20" height="13.1"/>
<path class="st12" d="M799.9,254.3h-1.1h-64.3v14.2v1.1v13.1v1.1v13.1v1.1v13.1v1.1v13.1v1.1v13.1v1.1v13.1v1.1v13.1v1.1v13.1v1.1
	v13.1v1.1v14.2h64.3h1.1H821v-14.2v-1.1v-13.1v-1.1V369v-1.1v-13.1v-1.1v-13.1v-1.1v-13.1v-1.1v-13.1v-1.1V298v-1.1v-13.1v-1.1
	v-13.1v-1.1v-14.2H799.9z M819.9,410.5h-20v-13.1h20V410.5z M798.8,410.5h-63.2v-13.1h63.2V410.5z M735.6,255.4h63.2v13.1h-63.2
	V255.4z M735.6,269.6h63.2v13.1h-63.2V269.6z M735.6,283.8h63.2v13.1h-63.2V283.8z M735.6,298h63.2v13.1h-63.2V298z M735.6,312.2
	h63.2v13.1h-63.2V312.2z M735.6,326.4h63.2v13.1h-63.2V326.4z M735.6,340.6h63.2v13.1h-63.2V340.6z M735.6,354.8h63.2v13.1h-63.2
	V354.8z M735.6,369h63.2v13.1h-63.2V369z M735.6,383.2h63.2v13.1h-63.2V383.2z M819.9,396.3h-20v-13.1h20V396.3z M819.9,382.1h-20
	V369h20V382.1z M819.9,367.9h-20v-13.1h20V367.9z M819.9,353.7h-20v-13.1h20V353.7z M819.9,339.5h-20v-13.1h20V339.5z M819.9,325.3
	h-20v-13.1h20V325.3z M819.9,311.1h-20V298h20V311.1z M819.9,296.9h-20v-13.1h20V296.9z M819.9,282.7h-20v-13.1h20V282.7z
	 M819.9,268.5h-20v-13.1h20V268.5z"/>
<rect x="799.9" y="269.6" class="st9" width="20" height="13.1"/>
<rect x="799.9" y="397.4" class="st9" width="20" height="13.1"/>
<rect x="799.9" y="283.8" class="st9" width="20" height="13.1"/>
<rect x="799.9" y="369" class="st9" width="20" height="13.1"/>
<rect x="799.9" y="354.8" class="st9" width="20" height="13.1"/>
<rect x="799.9" y="383.2" class="st9" width="20" height="13.1"/>
<rect x="799.9" y="298" class="st9" width="20" height="13.1"/>
<rect x="799.9" y="312.2" class="st9" width="20" height="13.1"/>
<rect x="799.9" y="340.6" class="st9" width="20" height="13.1"/>
<rect x="799.9" y="326.4" class="st9" width="20" height="13.1"/>
<g>
	<rect x="805.3" y="420.4" class="st14" width="14.6" height="10.3"/>
	<path class="st12" d="M804.2,419.4v12.4H821v-12.4H804.2z M819.9,430.7h-14.6v-10.3h14.6V430.7z"/>
</g>
<polygon class="st5" points="725.9,236.6 799.4,236.6 777.7,201.6 "/>
<polygon class="st8" points="777.7,201.6 799.4,236.6 829.5,236.6 "/>
<g>
	<rect x="723.9" y="236.6" class="st4" width="75.4" height="11.2"/>
	<polygon class="st4" points="805,236.6 799.4,236.6 799.4,247.7 805,247.7 831.5,247.7 831.5,236.6 	"/>
</g>
<g>
	<polygon class="st5" points="764.1,427.3 764.1,419.9 735,419.9 735,451.7 742.3,451.7 742.3,427.3 	"/>
	<rect x="742.3" y="427.3" class="st5" width="21.8" height="24.4"/>
	<rect x="764.1" y="419.9" class="st5" width="29" height="7.4"/>
	<rect x="764.1" y="427.3" class="st5" width="29" height="24.4"/>
</g>
<rect x="399.4" y="266.9" class="st5" width="75.8" height="184.8"/>
<rect x="475.2" y="266.9" class="st4" width="33.6" height="184.8"/>
<rect x="406.5" y="222" class="st5" width="63.2" height="44.7"/>
<rect x="469.7" y="222" class="st4" width="31.6" height="44.7"/>
<rect x="409.4" y="425.1" class="st4" width="22.4" height="26.6"/>
<rect x="437.3" y="425.1" class="st10" width="14" height="15.7"/>
<rect x="451.3" y="425.1" class="st10" width="14" height="15.7"/>
<rect x="480.9" y="425.1" class="st10" width="11.1" height="15.7"/>
<rect x="492" y="425.1" class="st10" width="11.1" height="15.7"/>
<path class="st9" d="M446,189.7c-17,1-30.5,15.1-30.5,32.3h60.9C476.5,204.8,463,190.7,446,189.7z"/>
<g>
	<rect x="427.9" y="233.2" class="st10" width="9.1" height="9.4"/>
	<rect x="439.2" y="233.2" class="st10" width="9.1" height="9.4"/>
	<rect x="416.6" y="244.8" class="st10" width="9.1" height="9.4"/>
	<rect x="450.5" y="233.2" class="st10" width="9.1" height="9.4"/>
	<rect x="416.6" y="233.2" class="st10" width="9.1" height="9.4"/>
	<rect x="416.6" y="256.4" class="st10" width="9.1" height="9.4"/>
	<rect x="427.9" y="244.8" class="st10" width="9.1" height="9.4"/>
	<rect x="439.2" y="244.8" class="st10" width="9.1" height="9.4"/>
	<rect x="450.5" y="256.4" class="st10" width="9.1" height="9.4"/>
	<rect x="439.2" y="256.4" class="st10" width="9.1" height="9.4"/>
	<rect x="450.5" y="244.8" class="st10" width="9.1" height="9.4"/>
	<rect x="427.9" y="256.4" class="st10" width="9.1" height="9.4"/>
	<path class="st12" d="M427.9,267.9h9.1h2.1h9.1h2.1h11.3v-11.6v-2.1v-9.4v-2.1v-11.6h-11.3h-2.1h-9.1h-2.1h-9.1h-2.1h-11.3v11.6
		v2.1v9.4v2.1v11.6h11.3H427.9z M416.6,233.2h9.1v9.4h-9.1V233.2z M427.9,233.2h9.1v9.4h-9.1V233.2z M439.2,233.2h9.1v9.4h-9.1
		V233.2z M450.5,233.2h9.1v9.4h-9.1V233.2z M459.6,265.8h-9.1v-9.4h9.1V265.8z M448.3,265.8h-9.1v-9.4h9.1V265.8z M437.1,265.8h-9.1
		v-9.4h9.1V265.8z M427.9,244.8h9.1v9.4h-9.1V244.8z M448.3,254.2h-9.1v-9.4h9.1V254.2z M459.6,254.2h-9.1v-9.4h9.1V254.2z
		 M416.6,244.8h9.1v9.4h-9.1V244.8z M416.6,256.4h9.1v9.4h-9.1V256.4z"/>
	<rect x="410.5" y="330.3" class="st10" width="11.8" height="10.4"/>
	<rect x="410.5" y="292.7" class="st10" width="11.8" height="10.4"/>
	<rect x="438.4" y="280.1" class="st10" width="11.8" height="10.4"/>
	<rect x="410.5" y="305.2" class="st10" width="11.8" height="10.4"/>
	<rect x="410.5" y="280.1" class="st10" width="11.8" height="10.4"/>
	<rect x="424.4" y="280.1" class="st10" width="11.8" height="10.4"/>
	<rect x="410.5" y="317.7" class="st10" width="11.8" height="10.4"/>
	<rect x="410.5" y="342.8" class="st10" width="11.8" height="10.4"/>
	<rect x="410.5" y="380.4" class="st10" width="11.8" height="10.4"/>
	<rect x="410.5" y="405.5" class="st10" width="11.8" height="10.4"/>
	<rect x="410.5" y="392.9" class="st10" width="11.8" height="10.4"/>
	<rect x="410.5" y="367.9" class="st10" width="11.8" height="10.4"/>
	<rect x="410.5" y="355.3" class="st10" width="11.8" height="10.4"/>
	<rect x="438.4" y="380.4" class="st10" width="11.8" height="10.4"/>
	<rect x="424.4" y="392.9" class="st10" width="11.8" height="10.4"/>
	<rect x="424.4" y="380.4" class="st10" width="11.8" height="10.4"/>
	<rect x="438.4" y="392.9" class="st10" width="11.8" height="10.4"/>
	<rect x="424.4" y="355.3" class="st10" width="11.8" height="10.4"/>
	<rect x="424.4" y="367.9" class="st10" width="11.8" height="10.4"/>
	<rect x="424.4" y="405.5" class="st10" width="11.8" height="10.4"/>
	<rect x="438.4" y="367.9" class="st10" width="11.8" height="10.4"/>
	<rect x="438.4" y="292.7" class="st10" width="11.8" height="10.4"/>
	<rect x="438.4" y="305.2" class="st10" width="11.8" height="10.4"/>
	<rect x="438.4" y="330.3" class="st10" width="11.8" height="10.4"/>
	<rect x="438.4" y="317.7" class="st10" width="11.8" height="10.4"/>
	<rect x="438.4" y="355.3" class="st10" width="11.8" height="10.4"/>
	<rect x="438.4" y="342.8" class="st10" width="11.8" height="10.4"/>
	<rect x="452.3" y="355.3" class="st10" width="11.8" height="10.4"/>
	<rect x="452.3" y="317.7" class="st10" width="11.8" height="10.4"/>
	<rect x="424.4" y="330.3" class="st10" width="11.8" height="10.4"/>
	<rect x="452.3" y="292.7" class="st10" width="11.8" height="10.4"/>
	<rect x="452.3" y="305.2" class="st10" width="11.8" height="10.4"/>
	<rect x="438.4" y="405.5" class="st10" width="11.8" height="10.4"/>
	<rect x="424.4" y="317.7" class="st10" width="11.8" height="10.4"/>
	<rect x="424.4" y="292.7" class="st10" width="11.8" height="10.4"/>
	<rect x="424.4" y="305.2" class="st10" width="11.8" height="10.4"/>
	<rect x="452.3" y="280.1" class="st10" width="11.8" height="10.4"/>
	<path class="st12" d="M450.2,278h-11.8h-2.1h-11.8h-2.1h-14v12.5v2.1v10.4v2.1v10.4v2.1v10.4v2.1v10.4v2.1v10.4v2.1v10.4v2.1v10.4
		v2.1v10.4v2.1v10.4v2.1V418h14h2.1h11.8h2.1h11.8h2.1h14v-12.5v-2.1v-10.4v-2.1v-10.4v-2.1v-10.4v-2.1v-10.4v-2.1v-10.4v-2.1v-10.4
		v-2.1v-10.4v-2.1v-10.4v-2.1v-10.4v-2.1V278h-14H450.2z M464.1,415.9h-11.8v-10.4h11.8V415.9z M450.2,415.9h-11.8v-10.4h11.8V415.9
		z M436.2,415.9h-11.8v-10.4h11.8V415.9z M422.3,415.9h-11.8v-10.4h11.8V415.9z M410.5,280.1h11.8v10.4h-11.8V280.1z M424.4,280.1
		h11.8v10.4h-11.8V280.1z M438.4,280.1h11.8v10.4h-11.8V280.1z M450.2,303.1h-11.8v-10.4h11.8V303.1z M450.2,315.6h-11.8v-10.4h11.8
		V315.6z M450.2,328.1h-11.8v-10.4h11.8V328.1z M450.2,340.7h-11.8v-10.4h11.8V340.7z M450.2,353.2h-11.8v-10.4h11.8V353.2z
		 M450.2,365.7h-11.8v-10.4h11.8V365.7z M450.2,378.3h-11.8v-10.4h11.8V378.3z M450.2,390.8h-11.8v-10.4h11.8V390.8z M450.2,403.3
		h-11.8v-10.4h11.8V403.3z M424.4,392.9h11.8v10.4h-11.8V392.9z M424.4,380.4h11.8v10.4h-11.8V380.4z M424.4,367.9h11.8v10.4h-11.8
		V367.9z M424.4,355.3h11.8v10.4h-11.8V355.3z M424.4,342.8h11.8v10.4h-11.8V342.8z M424.4,330.3h11.8v10.4h-11.8V330.3z
		 M424.4,317.7h11.8v10.4h-11.8V317.7z M424.4,305.2h11.8v10.4h-11.8V305.2z M424.4,292.7h11.8v10.4h-11.8V292.7z M410.5,292.7h11.8
		v10.4h-11.8V292.7z M410.5,305.2h11.8v10.4h-11.8V305.2z M410.5,317.7h11.8v10.4h-11.8V317.7z M410.5,330.3h11.8v10.4h-11.8V330.3z
		 M410.5,342.8h11.8v10.4h-11.8V342.8z M410.5,355.3h11.8v10.4h-11.8V355.3z M410.5,367.9h11.8v10.4h-11.8V367.9z M410.5,380.4h11.8
		v10.4h-11.8V380.4z M410.5,392.9h11.8v10.4h-11.8V392.9z M464.1,403.3h-11.8v-10.4h11.8V403.3z M464.1,390.8h-11.8v-10.4h11.8
		V390.8z M464.1,378.3h-11.8v-10.4h11.8V378.3z M464.1,365.7h-11.8v-10.4h11.8V365.7z M464.1,353.2h-11.8v-10.4h11.8V353.2z
		 M464.1,340.7h-11.8v-10.4h11.8V340.7z M464.1,328.1h-11.8v-10.4h11.8V328.1z M464.1,315.6h-11.8v-10.4h11.8V315.6z M464.1,303.1
		h-11.8v-10.4h11.8V303.1z M464.1,290.5h-11.8v-10.4h11.8V290.5z"/>
	<rect x="452.3" y="392.9" class="st10" width="11.8" height="10.4"/>
	<rect x="452.3" y="380.4" class="st10" width="11.8" height="10.4"/>
	<rect x="452.3" y="405.5" class="st10" width="11.8" height="10.4"/>
	<rect x="452.3" y="330.3" class="st10" width="11.8" height="10.4"/>
	<rect x="424.4" y="342.8" class="st10" width="11.8" height="10.4"/>
	<rect x="452.3" y="342.8" class="st10" width="11.8" height="10.4"/>
	<rect x="452.3" y="367.9" class="st10" width="11.8" height="10.4"/>
	<rect x="493.1" y="330.3" class="st10" width="8.9" height="10.4"/>
	<rect x="493.1" y="305.2" class="st10" width="8.9" height="10.4"/>
	<rect x="493.1" y="317.7" class="st10" width="8.9" height="10.4"/>
	<rect x="493.1" y="292.7" class="st10" width="8.9" height="10.4"/>
	<rect x="493.1" y="280.1" class="st10" width="8.9" height="10.4"/>
	<path class="st12" d="M493.1,278h-2.1h-11.1v12.5v2.1v10.4v2.1v10.4v2.1v10.4v2.1v10.4v2.1v10.4v2.1v10.4v2.1v10.4v2.1v10.4v2.1
		v10.4v2.1V418h11.1h2.1h11.1v-12.5v-2.1v-10.4v-2.1v-10.4v-2.1v-10.4v-2.1v-10.4v-2.1v-10.4v-2.1v-10.4v-2.1v-10.4v-2.1v-10.4v-2.1
		v-10.4v-2.1V278H493.1z M502,415.9h-8.9v-10.4h8.9V415.9z M490.9,415.9H482v-10.4h8.9V415.9z M482,280.1h8.9v10.4H482V280.1z
		 M482,292.7h8.9v10.4H482V292.7z M482,305.2h8.9v10.4H482V305.2z M482,317.7h8.9v10.4H482V317.7z M482,330.3h8.9v10.4H482V330.3z
		 M482,342.8h8.9v10.4H482V342.8z M482,355.3h8.9v10.4H482V355.3z M482,367.9h8.9v10.4H482V367.9z M482,380.4h8.9v10.4H482V380.4z
		 M482,392.9h8.9v10.4H482V392.9z M502,403.3h-8.9v-10.4h8.9V403.3z M502,390.8h-8.9v-10.4h8.9V390.8z M502,378.3h-8.9v-10.4h8.9
		V378.3z M502,365.7h-8.9v-10.4h8.9V365.7z M502,353.2h-8.9v-10.4h8.9V353.2z M502,340.7h-8.9v-10.4h8.9V340.7z M502,328.1h-8.9
		v-10.4h8.9V328.1z M502,315.6h-8.9v-10.4h8.9V315.6z M502,303.1h-8.9v-10.4h8.9V303.1z M502,290.5h-8.9v-10.4h8.9V290.5z"/>
	<rect x="493.1" y="342.8" class="st10" width="8.9" height="10.4"/>
	<rect x="493.1" y="405.5" class="st10" width="8.9" height="10.4"/>
	<rect x="482" y="405.5" class="st10" width="8.9" height="10.4"/>
	<rect x="493.1" y="392.9" class="st10" width="8.9" height="10.4"/>
	<rect x="493.1" y="380.4" class="st10" width="8.9" height="10.4"/>
	<rect x="493.1" y="367.9" class="st10" width="8.9" height="10.4"/>
	<rect x="493.1" y="355.3" class="st10" width="8.9" height="10.4"/>
	<rect x="482" y="330.3" class="st10" width="8.9" height="10.4"/>
	<rect x="482" y="355.3" class="st10" width="8.9" height="10.4"/>
	<rect x="482" y="305.2" class="st10" width="8.9" height="10.4"/>
	<rect x="482" y="317.7" class="st10" width="8.9" height="10.4"/>
	<rect x="482" y="342.8" class="st10" width="8.9" height="10.4"/>
	<rect x="482" y="392.9" class="st10" width="8.9" height="10.4"/>
	<rect x="482" y="367.9" class="st10" width="8.9" height="10.4"/>
	<rect x="482" y="380.4" class="st10" width="8.9" height="10.4"/>
	<rect x="482" y="292.7" class="st10" width="8.9" height="10.4"/>
	<rect x="482" y="280.1" class="st10" width="8.9" height="10.4"/>
	<rect x="487.4" y="233.2" class="st10" width="6.9" height="9.4"/>
	<rect x="478.3" y="233.2" class="st10" width="6.9" height="9.4"/>
	<rect x="487.4" y="256.3" class="st10" width="6.9" height="9.4"/>
	<rect x="487.4" y="244.8" class="st10" width="6.9" height="9.4"/>
	<rect x="478.3" y="256.3" class="st10" width="6.9" height="9.4"/>
	<path class="st12" d="M487.4,267.8h9.1v-11.5v-2.1v-9.4v-2.1v-11.5h-9.1h-2.1h-9.1v11.5v2.1v9.4v2.1v11.5h9.1H487.4z M478.3,233.2
		h6.9v9.4h-6.9V233.2z M487.4,233.2h6.9v9.4h-6.9V233.2z M494.3,265.7h-6.9v-9.4h6.9V265.7z M494.3,254.1h-6.9v-9.4h6.9V254.1z
		 M478.3,244.8h6.9v9.4h-6.9V244.8z M478.3,256.3h6.9v9.4h-6.9V256.3z"/>
	<rect x="478.3" y="244.8" class="st10" width="6.9" height="9.4"/>
</g>
<g>
	<path class="st4" d="M461.5,189.6H448c-0.7,0-1.3,0.1-2,0.1c9.3,0.6,17.6,5.1,23.2,11.9h17.5C480.7,194.3,471.7,189.6,461.5,189.6z
		"/>
	<path class="st4" d="M469.2,201.6c4.6,5.6,7.3,12.7,7.3,20.4H494c0-7.8-2.7-14.9-7.3-20.4H469.2z"/>
</g>
<g>
	<rect x="673.9" y="279.8" class="st4" width="26.2" height="171.9"/>
	<polygon class="st4" points="700.1,221.8 673.9,279.8 700.1,279.8 	"/>
</g>
<polygon class="st12" points="700.1,221.8 619.2,279.8 673.9,279.8 "/>
<rect x="619.2" y="279.8" class="st5" width="54.7" height="171.9"/>
<rect x="626.3" y="290.4" class="st12" width="47.6" height="10.8"/>
<rect x="673.9" y="290.4" class="st10" width="19.8" height="10.8"/>
<rect x="626.3" y="307.6" class="st12" width="47.6" height="10.8"/>
<rect x="673.9" y="307.6" class="st10" width="19.8" height="10.8"/>
<rect x="626.3" y="324.8" class="st12" width="47.6" height="10.8"/>
<rect x="673.9" y="324.8" class="st10" width="19.8" height="10.8"/>
<rect x="626.3" y="342" class="st12" width="47.6" height="10.8"/>
<rect x="673.9" y="342" class="st10" width="19.8" height="10.8"/>
<rect x="626.3" y="359.2" class="st12" width="47.6" height="10.8"/>
<rect x="673.9" y="359.2" class="st10" width="19.8" height="10.8"/>
<rect x="626.3" y="376.4" class="st12" width="47.6" height="10.8"/>
<rect x="673.9" y="376.4" class="st10" width="19.8" height="10.8"/>
<rect x="626.3" y="393.6" class="st12" width="47.6" height="10.8"/>
<rect x="673.9" y="393.6" class="st10" width="19.8" height="10.8"/>
<rect x="680.1" y="415.1" class="st10" width="13.6" height="13.6"/>
<polygon class="st0" points="650.2,279.8 684.6,232.9 658.5,251.6 637.6,279.8 "/>
<polygon class="st0" points="673.4,279.8 674.7,278 682.6,260.5 668.4,279.8 "/>
<polygon class="st12" points="619.2,279.8 621,279.8 623,277 "/>
<polygon class="st0" points="673.9,301.2 673.9,290.4 668.9,290.4 661,301.2 "/>
<polygon class="st0" points="665.6,290.4 660.6,290.4 652.7,301.2 657.6,301.2 "/>
<polygon class="st0" points="629.7,290.4 626.3,295 626.3,301.2 634.4,301.2 642.4,290.4 "/>
<polygon class="st10" points="677.7,301.2 685.7,290.4 673.9,290.4 673.9,301.2 "/>
<polygon class="st10" points="693.6,301.2 693.6,290.4 688.3,290.4 680.3,301.2 "/>
<polygon class="st0" points="652.9,307.6 648,307.6 640.1,318.4 645,318.4 "/>
<polygon class="st0" points="673.9,318.4 673.9,310 667.7,318.4 "/>
<polygon class="st0" points="648.4,318.4 665.1,318.4 673.1,307.6 656.3,307.6 "/>
<polygon class="st0" points="626.3,307.6 626.3,312.4 629.8,307.6 "/>
<polygon class="st10" points="673.9,318.4 684.7,318.4 692.7,307.6 675.6,307.6 673.9,310 "/>
<polygon class="st0" points="660.4,324.8 643.7,324.8 635.8,335.6 652.5,335.6 "/>
<polygon class="st0" points="673.9,324.8 663,324.8 655.1,335.6 671.9,335.6 673.9,333 "/>
<polygon class="st0" points="635.4,324.8 627.4,335.6 632.4,335.6 640.3,324.8 "/>
<polygon class="st10" points="673.9,333 679.9,324.8 673.9,324.8 "/>
<polygon class="st0" points="626.3,342 626.3,343.9 627.7,342 "/>
<polygon class="st0" points="667.2,342 650.4,342 642.5,352.8 659.2,352.8 "/>
<polygon class="st0" points="631.1,342 626.3,348.5 626.3,352.8 639.9,352.8 647.8,342 "/>
<polygon class="st10" points="688.4,352.8 693.6,345.8 693.6,342 689.7,342 681.7,352.8 "/>
<polygon class="st10" points="693.6,352.8 693.6,348.6 690.5,352.8 "/>
<polygon class="st0" points="637.8,359.2 629.8,370 646.4,370 654.4,359.2 "/>
<polygon class="st0" points="673.9,363.3 668.9,370 673.9,370 "/>
<polygon class="st12" points="626.3,359.2 626.3,370 627.3,370 635.2,359.2 "/>
<polygon class="st10" points="675.6,370 683.6,359.2 676.9,359.2 673.9,363.3 673.9,370 "/>
<polygon class="st10" points="687.4,370 693.6,361.6 693.6,359.2 685.8,359.2 677.7,370 "/>
<polygon class="st0" points="673,376.4 664.9,387.2 673.9,387.2 673.9,376.4 "/>
<polygon class="st0" points="670.8,376.4 664.2,376.4 656.1,387.2 662.8,387.2 "/>
<polygon class="st12" points="626.3,376.4 626.3,387.2 633.6,387.2 641.7,376.4 "/>
<polygon class="st10" points="673.9,387.2 674.7,387.2 682.7,376.4 673.9,376.4 "/>
<polygon class="st10" points="693.6,387.2 693.6,384 691.3,387.2 "/>
<polygon class="st0" points="651.4,393.6 643.4,404.4 650,404.4 658,393.6 "/>
<polygon class="st12" points="626.3,393.6 626.3,397.1 628.9,393.6 "/>
<polygon class="st0" points="660.2,393.6 652.1,404.4 661.9,404.4 670,393.6 "/>
<polygon class="st10" points="693.6,393.6 686.5,393.6 678.5,404.4 690.4,404.4 693.6,400 "/>
<polygon class="st10" points="693.6,422.5 689.1,428.7 693.6,428.7 "/>
<polygon class="st10" points="693.6,415.1 685.9,415.1 680.1,423.1 680.1,428.7 685.8,428.7 693.6,417.9 "/>
<polygon class="st10" points="680.1,415.1 680.1,418.5 682.5,415.1 "/>
<polygon class="st0" points="668.4,279.8 682.6,260.5 700.1,221.8 684.6,232.9 650.2,279.8 "/>
<polygon class="st0" points="660.6,290.4 642.4,290.4 634.4,301.2 652.7,301.2 "/>
<polygon class="st0" points="640.1,318.4 648,307.6 629.8,307.6 626.3,312.4 626.3,318.4 "/>
<polygon class="st0" points="626.3,324.8 626.3,335.6 627.4,335.6 635.4,324.8 "/>
<polygon class="st15" points="673.9,279.8 674.7,278 673.4,279.8 "/>
<polygon class="st0" points="657.6,301.2 661,301.2 668.9,290.4 665.6,290.4 "/>
<polygon class="st0" points="652.9,307.6 645,318.4 648.4,318.4 656.3,307.6 "/>
<polygon class="st0" points="643.7,324.8 640.3,324.8 632.4,335.6 635.8,335.6 "/>
<polygon class="st0" points="627.7,342 626.3,343.9 626.3,348.5 631.1,342 "/>
<polygon class="st0" points="667.7,318.4 673.9,310 673.9,307.6 673.1,307.6 665.1,318.4 "/>
<polygon class="st15" points="673.9,310 675.6,307.6 673.9,307.6 "/>
<polygon class="st0" points="660.4,324.8 652.5,335.6 655.1,335.6 663,324.8 "/>
<polygon class="st0" points="650.4,342 647.8,342 639.9,352.8 642.5,352.8 "/>
<polygon class="st15" points="635.2,359.2 627.3,370 629.8,370 637.8,359.2 "/>
<polygon class="st0" points="671.9,335.6 673.9,335.6 673.9,333 "/>
<polygon class="st0" points="673.9,352.8 673.9,342 667.2,342 659.2,352.8 "/>
<polygon class="st0" points="673.9,363.3 673.9,359.2 654.4,359.2 646.4,370 668.9,370 "/>
<polygon class="st0" points="664.2,376.4 641.7,376.4 633.6,387.2 656.1,387.2 "/>
<polygon class="st0" points="628.9,393.6 626.3,397.1 626.3,404.4 643.4,404.4 651.4,393.6 "/>
<polygon class="st0" points="673.9,393.6 670,393.6 661.9,404.4 673.9,404.4 "/>
<polygon class="st0" points="658.5,251.6 623,277 621,279.8 637.6,279.8 "/>
<polygon class="st0" points="626.3,290.4 626.3,295 629.7,290.4 "/>
<polygon class="st0" points="670.8,376.4 662.8,387.2 664.9,387.2 673,376.4 "/>
<polygon class="st0" points="658,393.6 650,404.4 652.1,404.4 660.2,393.6 "/>
<g>
	<polygon class="st4" points="625,415.1 625,451.7 636.3,451.7 636.3,425.6 665.2,425.6 665.2,415.1 	"/>
	<rect x="632.2" y="421.9" class="st4" width="33.1" height="29.8"/>
</g>
<path class="st3" d="M1489,422.6c-6.5-2.1-12.4-7.1-13.6-13.8c-0.9-4.9,0.9-10.3-1-14.9c-1.7-4.2-5.9-6.8-8.9-10.2
	c-8.2-9.2-5.8-25.7,4.8-32.2c5.7-3.5,13.1-4.3,17.7-9.1c4.2-4.4,5-11,7.6-16.6c3.4-7.4,10.5-13.3,18.6-13.8
	c8.1-0.5,16.5,5.2,17.9,13.2c0.7,4.1-0.4,8.3,0.2,12.3c1.1,7.5,7.3,12.9,12.6,18.3c5.3,5.4,10.3,12.7,8.2,20
	c-1.5,5.1-6.3,9.1-6.6,14.4c-0.3,4.4,2.7,8.3,3.7,12.7c2.1,9.1-5.4,18.2-14.2,21.3c-8.3,2.9-16.9,1.8-25.3,0.7
	C1503.5,424,1495.9,424.8,1489,422.6z"/>
<polygon class="st4" points="1525.1,369.3 1523.1,367.3 1510.3,379.7 1510.3,353.4 1507.4,353.4 1507.4,407.7 1491.9,385.7 
	1489.5,387.4 1507.4,412.7 1507.4,451.7 1510.3,451.7 1510.3,383.8 "/>
<path class="st3" d="M132.8,423.6c-4.9-0.6-9.8-3.1-12-7.5c-3.7-7.3,1.2-16.3-0.9-24.2c-1.4-5.2-5.7-10.4-3.6-15.3
	c1.8-4.2,7.5-5.9,8.9-10.3c1.4-4.6-2.6-8.8-4.6-13.1c-3.2-6.8-1.4-14.7,0.4-21.9c1.8-7,3.6-14.1,7.7-20c3.5-5,8.4-8.8,12-13.6
	c2-2.7,3.6-5.8,5.9-8.3c2.3-2.5,5.6-4.5,8.9-4.1c4.4,0.5,7.4,4.9,8.5,9.2c1.1,4.3,0.8,8.9,1.7,13.2c2.6,12.3,14.6,21.9,14.6,34.5
	c0,6.8-3.6,13.1-3.5,19.9c0.1,5.1,2.2,10,3.6,14.9c1.4,4.9,2,10.6-0.8,14.9c-3.1,4.7-9.9,7.3-10.1,12.9c-0.2,3.6,2.7,6.7,3.1,10.3
	c0.5,5.1-4.6,9.4-9.7,10c-5.6,0.7-9.9-2.6-15.2-2.8C142.7,422,138,424.3,132.8,423.6z"/>
<polygon class="st4" points="163.2,354.7 161.1,353.2 149.7,370.5 149.7,324.9 147.1,324.9 147.1,404.7 132.5,389.7 130.7,391.5 
	147.1,408.4 147.1,451.7 149.7,451.7 149.7,375.2 "/>
<path class="st3" d="M583.1,451.7H483c-3.4-2.7-6.7-6.4-8.4-10.4c-1.7-4-1.7-8.9,1-12.4c2-2.5,5-3.9,7.4-6c3.3-3,5.1-7.3,7.6-11.1
	c2.5-3.8,6.2-7.3,10.7-7.1c3.5,0.1,6.7,2.5,10.2,2.9c5.3,0.5,9.7-3.5,14.5-5.7c8.1-3.8,17.6-2.6,26.1-0.2
	c13.4,3.8,26.6,11.1,33.6,23.2C590.5,433.2,588.8,443.9,583.1,451.7z"/>
<path class="st3" d="M585.8,432.6c-5.8-0.5-11.7-2.9-15.1-7.7c-4-5.7-3.7-13.7-8.2-19c-6.3-7.6-20.5-8.3-22.2-17.9
	c-0.9-5,2.6-9.9,6.7-13c4.1-3.1,8.9-5.1,12.8-8.5c7.3-6.5,10-17.3,17.8-23.3c10.8-8.2,26.2-3.9,39,0.7c8.2,3,16.7,6.1,23.2,11.9
	c6.5,5.8,10.8,15.1,8.2,23.5c-1.2,3.9-3.8,7.5-3.3,11.6c0.4,3.6,3,6.4,4.5,9.7c4.4,9.9-3.2,21.9-13.2,26.1
	c-9.2,3.9-17.6,1.6-27.1,2.2C600.9,429.4,594.1,433.3,585.8,432.6z"/>
<polygon class="st4" points="617.5,400.2 615.6,398.6 602.7,413.8 602.7,356.3 600.1,356.3 600.1,391.1 588.6,375.2 586.6,376.7 
	600.1,395.5 600.1,451.7 602.7,451.7 602.7,417.8 "/>
<path class="st3" d="M881.9,439.1c-3.8-0.3-7.7-1.9-9.9-5.1c-2.6-3.7-2.5-9-5.4-12.5c-4.1-5-13.5-5.5-14.6-11.8
	c-0.6-3.3,1.7-6.5,4.4-8.6c2.7-2,5.9-3.4,8.4-5.6c4.8-4.3,6.6-11.4,11.8-15.3c7.1-5.4,17.3-2.6,25.7,0.4c5.4,2,11,4,15.3,7.9
	c4.3,3.8,7.1,10,5.4,15.5c-0.8,2.6-2.5,5-2.2,7.6c0.2,2.4,2,4.2,2.9,6.4c2.9,6.6-2.1,14.4-8.7,17.2c-6.1,2.6-11.6,1-17.9,1.5
	C891.9,437,887.4,439.5,881.9,439.1z"/>
<polygon class="st4" points="902.9,417.7 901.6,416.6 893.1,426.7 893.1,388.8 891.4,388.8 891.4,411.8 883.8,401.3 882.5,402.2 
	891.4,414.6 891.4,451.7 893.1,451.7 893.1,429.3 "/>
<path class="st8" d="M942.4,345.5l-15.7,106.1h23.7C951.4,416.2,948.7,380.5,942.4,345.5z"/>
<path class="st4" d="M952.6,307.2c-0.4-2.6-4.2-2.6-4.6,0l-5.7,38.4c6.3,35,9,70.6,8,106.1h23.6L952.6,307.2z"/>
<rect x="1015.7" y="354.3" class="st4" width="5.9" height="68.2"/>
<polygon class="st8" points="1035.8,361.8 1033.2,365.7 883.6,268.1 889.3,259.3 "/>
<g>
	<path class="st5" d="M870.7,256.4c-4.8,7.4-7.3,16-7.3,24.8l0.1,22.5c0,2.4,3.1,3.3,4.4,1.3l17.8-27.3c-0.5-12-2.5-23.9-5.8-35.4
		L870.7,256.4z"/>
	<path class="st5" d="M901.7,248.8l-15.1-9.9c-1.7-1.1-4-0.6-5.2,1.1l-1.4,2.2c3.3,11.5,5.3,23.4,5.8,35.4l16.6-25.5
		C903.1,251.1,902.8,249.6,901.7,248.8z"/>
</g>
<g>
	<path class="st5" d="M1028.9,387.2c0-5.6-4.5-10.2-10.1-10.2c1.1,4.1,1.7,8.4,1.8,12.6h8.3V387.2z"/>
	<path class="st5" d="M1018.7,377c-5.6,0-10.2,4.6-10.2,10.2v2.5h12C1020.4,385.4,1019.8,381.2,1018.7,377
		C1018.7,377,1018.7,377,1018.7,377z"/>
</g>
<g>
	<path class="st9" d="M1029.6,438c-0.6-7.9-3.9-15.4-9.1-21.3c-0.5,0-0.9-0.1-1.4-0.1c-15.2,0-27.6,12.3-27.6,27.6v7.4h36.3
		C1029.3,447.3,1030,442.7,1029.6,438z"/>
	<path class="st9" d="M1046.2,444.3c0-14.7-11.6-26.7-26.1-27.5c5.2,5.9,8.6,13.4,9.1,21.3c0.3,4.6-0.4,9.2-1.8,13.6h18.8V444.3z"/>
</g>
<path class="st3" d="M131.9,674.3H40.6c-3.1-2.5-6.1-5.9-7.6-9.5c-1.6-3.6-1.5-8.2,0.9-11.3c1.8-2.3,4.6-3.6,6.7-5.5
	c3-2.7,4.7-6.7,6.9-10.1c2.2-3.4,5.7-6.6,9.8-6.5c3.2,0.1,6.1,2.3,9.3,2.6c4.8,0.5,8.9-3.2,13.2-5.2c7.4-3.5,16-2.4,23.8-0.1
	c12.2,3.5,24.3,10.1,30.6,21.1C138.7,657.4,137.2,667.2,131.9,674.3z"/>
<g>
	<path class="st8" d="M826.5,501.2c-0.9,0.7-1.8,1.4-2.6,2.1c-13.1,10.6-26.5,21.5-36.6,34.9c10.6-3.5,27.9-11.8,46.7-22.7
		c4.6-2.6,8.9-5.3,13-7.8c4.4-7.5,8.2-15.2,11.5-23.2C849.3,488.7,838.2,494.4,826.5,501.2z"/>
	<path class="st8" d="M823.9,503.3c0.9-0.7,1.8-1.4,2.6-2.1c-0.2,0.1-0.4,0.2-0.6,0.3c-29.5,17-51.5,34-49.3,37.8
		c0.8,1.4,4.7,0.9,10.7-1.1C797.4,524.8,810.7,513.9,823.9,503.3z"/>
	<path class="st8" d="M883.4,477.7c-1.3-2.3-11,0.5-24.8,6.8c-3.3,8-7.1,15.8-11.5,23.2C869.7,493.6,885.3,481,883.4,477.7z"/>
</g>
<g>
	<path class="st8" d="M876.7,366c-3.6,0-6.7,18.1-7.7,43c3.1-12.2,7-24.3,11.5-36C879.3,368.5,878.1,366,876.7,366z"/>
	<path class="st8" d="M869,409c-0.2,5.9-0.4,12.1-0.4,18.6c0,12.2,0.5,23.5,1.3,33c5.8-8.8,10.8-18.1,15-27.8c0-1.7,0-3.4,0-5.2
		c0-23.8-1.8-44.4-4.4-54.6C875.9,384.8,872.1,396.8,869,409z"/>
	<path class="st8" d="M876.7,489.2c4.3,0,7.7-24.8,8.1-56.4c-4.1,9.7-9.2,19-15,27.8C871.3,477.8,873.8,489.2,876.7,489.2z"/>
</g>
<g>
	<path class="st8" d="M870.1,477.7c-1.9,3.3,13.6,15.9,36.3,30c-6-7.2-10.8-15.5-13.9-24.3C880,477.9,871.3,475.5,870.1,477.7z"/>
	<path class="st8" d="M971,531.1c-9.4-0.2-18.8-1.1-28-2.9c18.5,9.1,32.2,13.8,33.8,11.1C977.6,538,975.4,535.1,971,531.1z"/>
	<path class="st8" d="M927.5,501.5c-13-7.5-25.2-13.7-35-18c3.1,8.8,7.9,17.1,13.9,24.3c4.1,2.6,8.5,5.2,13,7.8
		c8.3,4.8,16.4,9.1,23.7,12.7c9.2,1.7,18.6,2.7,28,2.9C962.8,523.7,946.8,512.6,927.5,501.5z"/>
</g>
<path class="st8" d="M878.9,517.6c-0.8-19.4-1.7-34.1-2-40.2h-6.1l-1.5,26.4l-9.2,165.1c0,3,7.4,5.4,16.6,5.4c0.8,0,1.6,0,2.4-0.1
	C882.5,625.9,880.7,560.3,878.9,517.6z"/>
<path class="st4" d="M885.4,528.4l-2.9-51h-5.7c0.4,6.1,1.2,20.8,2,40.2c1.8,42.7,3.6,108.3,0.2,156.6c8-0.4,14.2-2.6,14.2-5.4
	L885.4,528.4z"/>
<circle class="st9" cx="876.7" cy="481.6" r="10.8"/>
<circle class="st16" cx="877.8" cy="482.2" r="6.4"/>
<circle class="st5" cx="876.7" cy="481.6" r="6.4"/>
<g>
	<path class="st5" d="M926.7,501.2c-0.9,0.7-1.8,1.4-2.6,2.1c-13.1,10.6-26.5,21.5-36.6,34.9c10.6-3.5,27.9-11.8,46.7-22.7
		c4.6-2.6,8.9-5.3,13-7.8c4.4-7.5,8.2-15.2,11.5-23.2C949.6,488.7,938.5,494.4,926.7,501.2z"/>
	<path class="st5" d="M924.1,503.3c0.9-0.7,1.8-1.4,2.6-2.1c-0.2,0.1-0.4,0.2-0.6,0.3c-29.5,17-51.5,34-49.3,37.8
		c0.8,1.4,4.7,0.9,10.7-1.1C897.6,524.8,911,513.9,924.1,503.3z"/>
	<path class="st5" d="M983.6,477.7c-1.3-2.3-11,0.5-24.8,6.8c-3.3,8-7.1,15.8-11.5,23.2C970,493.6,985.5,481,983.6,477.7z"/>
</g>
<g>
	<path class="st5" d="M976.9,366c-3.6,0-6.7,18.1-7.7,43c3.1-12.2,7-24.3,11.5-36C979.6,368.5,978.3,366,976.9,366z"/>
	<path class="st5" d="M969.2,409c-0.2,5.9-0.4,12.1-0.4,18.6c0,12.2,0.5,23.5,1.3,33c5.8-8.8,10.8-18.1,15-27.8c0-1.7,0-3.4,0-5.2
		c0-23.8-1.8-44.4-4.4-54.6C976.2,384.8,972.3,396.8,969.2,409z"/>
	<path class="st5" d="M976.9,489.2c4.3,0,7.7-24.8,8.1-56.4c-4.1,9.7-9.2,19-15,27.8C971.5,477.8,974.1,489.2,976.9,489.2z"/>
</g>
<g>
	<path class="st5" d="M970.3,477.7c-1.9,3.3,13.6,15.9,36.3,30c-6-7.2-10.8-15.5-13.9-24.3C980.2,477.9,971.6,475.5,970.3,477.7z"/>
	<path class="st5" d="M1071.3,531.1c-9.4-0.2-18.8-1.1-28-2.9c18.5,9.1,32.2,13.8,33.8,11.1C1077.8,538,1075.6,535.1,1071.3,531.1z"
		/>
	<path class="st5" d="M1027.7,501.5c-13-7.5-25.2-13.7-35-18c3.1,8.8,7.9,17.1,13.9,24.3c4.1,2.6,8.5,5.2,13,7.8
		c8.3,4.8,16.4,9.1,23.7,12.7c9.2,1.7,18.6,2.7,28,2.9C1063.1,523.7,1047,512.6,1027.7,501.5z"/>
</g>
<path class="st9" d="M979.2,517.6c-0.8-19.4-1.7-34.1-2-40.2h-6.1l-1.5,26.4l-9.2,165.1c0,3,7.4,5.4,16.6,5.4c0.8,0,1.6,0,2.4-0.1
	C982.7,625.9,981,560.3,979.2,517.6z"/>
<path class="st13" d="M985.7,528.4l-2.9-51h-5.7c0.4,6.1,1.2,20.8,2,40.2C981.4,521.2,983.6,524.7,985.7,528.4z"/>
<path class="st4" d="M979.2,517.6c1.8,42.7,3.6,108.3,0.2,156.6c8-0.4,14.2-2.6,14.2-5.4l-7.9-140.5
	C983.6,524.7,981.4,521.2,979.2,517.6z"/>
<circle class="st12" cx="976.9" cy="481.6" r="10.8"/>
<circle class="st16" cx="978" cy="482.2" r="6.4"/>
<circle class="st5" cx="976.9" cy="481.6" r="6.4"/>
<g>
	<path class="st5" d="M1181.9,522.4c-0.8,0.6-1.5,1.2-2.3,1.9c-11.5,9.3-23.3,18.9-32.1,30.7c9.3-3.1,24.5-10.3,41-19.9
		c4-2.3,7.8-4.6,11.4-6.9c3.9-6.5,7.2-13.4,10.1-20.4C1202,511.4,1192.2,516.5,1181.9,522.4z"/>
	<path class="st5" d="M1179.6,524.3c0.8-0.6,1.5-1.2,2.3-1.9c-0.2,0.1-0.3,0.2-0.5,0.3c-25.9,14.9-45.2,29.8-43.3,33.2
		c0.7,1.2,4.1,0.8,9.4-1C1156.4,543.2,1168.1,533.6,1179.6,524.3z"/>
	<path class="st5" d="M1231.8,501.8c-1.2-2-9.6,0.5-21.7,5.9c-2.9,7-6.2,13.8-10.1,20.4C1219.9,515.8,1233.5,504.7,1231.8,501.8z"/>
</g>
<g>
	<path class="st5" d="M1226,403.8c-3.2,0-5.9,15.9-6.8,37.8c2.8-10.7,6.1-21.3,10.1-31.6C1228.3,406,1227.2,403.8,1226,403.8z"/>
	<path class="st5" d="M1219.2,441.5c-0.2,5.1-0.3,10.6-0.3,16.3c0,10.7,0.4,20.6,1.1,29c5.1-7.7,9.5-15.9,13.1-24.4c0-1.5,0-3,0-4.6
		c0-20.8-1.6-38.9-3.8-47.9C1225.3,420.2,1221.9,430.8,1219.2,441.5z"/>
	<path class="st5" d="M1226,511.9c3.7,0,6.8-21.8,7.1-49.5c-3.6,8.5-8,16.7-13.1,24.4C1221.2,501.9,1223.5,511.9,1226,511.9z"/>
</g>
<g>
	<path class="st5" d="M1220.2,501.8c-1.7,2.9,12,14,31.8,26.4c-5.3-6.3-9.4-13.6-12.2-21.3C1228.8,502,1221.3,499.9,1220.2,501.8z"
		/>
	<path class="st5" d="M1308.7,548.7c-8.2-0.1-16.5-1-24.6-2.5c16.2,8,28.2,12.1,29.6,9.7C1314.5,554.7,1312.6,552.1,1308.7,548.7z"
		/>
	<path class="st5" d="M1270.5,522.7c-11.4-6.6-22.1-12-30.7-15.8c2.7,7.8,6.9,15,12.2,21.3c3.6,2.3,7.4,4.5,11.4,6.8
		c7.3,4.2,14.4,8,20.8,11.2c8.1,1.5,16.3,2.4,24.6,2.5C1301.5,542.2,1287.5,532.4,1270.5,522.7z"/>
</g>
<path class="st9" d="M1227.9,536.8c-0.7-17.1-1.5-29.9-1.8-35.3h-5.3l-1.3,23.2l-8.1,144.9c0,2.6,6.5,4.8,14.6,4.8
	c0.7,0,1.4,0,2.1-0.1C1231.1,631.9,1229.5,574.3,1227.9,536.8z"/>
<path class="st13" d="M1233.6,546.3l-2.5-44.8h-5c0.3,5.4,1.1,18.2,1.8,35.3C1229.9,539.9,1231.8,543.1,1233.6,546.3z"/>
<path class="st4" d="M1227.9,536.8c1.6,37.4,3.1,95,0.2,137.4c7-0.3,12.4-2.3,12.4-4.7l-6.9-123.3
	C1231.8,543.1,1229.9,539.9,1227.9,536.8z"/>
<circle class="st9" cx="1226" cy="505.2" r="9.5"/>
<circle class="st5" cx="1226" cy="505.2" r="5.6"/>
<path class="st3" d="M527.6,648.1c-5.8-1.9-11.2-6.4-12.3-12.4c-0.8-4.5,0.8-9.3-0.9-13.5c-1.5-3.8-5.3-6.1-8-9.2
	c-7.4-8.3-5.2-23.2,4.3-29c5.1-3.1,11.8-3.9,16-8.3c3.8-4,4.5-10,6.8-15c3-6.7,9.5-12,16.8-12.5c7.3-0.5,14.9,4.7,16.1,11.9
	c0.6,3.7-0.3,7.5,0.2,11.1c1,6.7,6.6,11.7,11.3,16.5c4.8,4.9,9.3,11.5,7.4,18c-1.3,4.6-5.7,8.2-6,13c-0.2,4,2.4,7.5,3.3,11.4
	c1.9,8.2-4.9,16.4-12.8,19.2c-7.5,2.6-15.2,1.6-22.9,0.6C540.6,649.3,533.8,650.1,527.6,648.1z"/>
<polygon class="st4" points="560.1,600 558.3,598.1 546.8,609.4 546.8,585.7 544.2,585.7 544.2,634.6 530.2,614.8 528,616.3 
	544.2,639.2 544.2,674.3 546.8,674.3 546.8,613 "/>
<path class="st3" d="M1620.4,651.3c-5.1-1.6-9.8-5.6-10.8-10.9c-0.7-3.9,0.7-8.1-0.8-11.8c-1.3-3.3-4.7-5.4-7.1-8.1
	c-6.5-7.3-4.6-20.4,3.8-25.5c4.5-2.8,10.3-3.4,14-7.2c3.4-3.5,4-8.7,6-13.2c2.7-5.9,8.3-10.5,14.8-10.9c6.4-0.4,13.1,4.1,14.1,10.5
	c0.5,3.2-0.3,6.5,0.2,9.8c0.9,5.9,5.8,10.2,10,14.5c4.2,4.3,8.1,10,6.5,15.8c-1.2,4.1-5,7.2-5.2,11.4c-0.2,3.5,2.1,6.6,2.9,10
	c1.6,7.2-4.3,14.4-11.3,16.9c-6.6,2.3-13.3,1.4-20.1,0.6C1631.8,652.4,1625.8,653,1620.4,651.3z"/>
<polygon class="st4" points="1648.9,609.1 1647.3,607.5 1637.2,617.3 1637.2,596.5 1634.9,596.5 1634.9,639.5 1622.6,622.1 
	1620.8,623.4 1634.9,643.5 1634.9,674.3 1637.2,674.3 1637.2,620.5 "/>
<path class="st3" d="M792.5,645.9c-4.9-0.6-9.9-3.2-12.1-7.6c-3.7-7.4,1.2-16.5-0.9-24.5c-1.4-5.3-5.8-10.5-3.7-15.5
	c1.8-4.3,7.6-6,9-10.4c1.4-4.6-2.6-8.9-4.7-13.3c-3.2-6.9-1.4-14.9,0.4-22.2c1.8-7.1,3.6-14.3,7.8-20.2c3.5-5,8.5-8.9,12.1-13.8
	c2-2.8,3.6-5.9,6-8.4s5.6-4.5,9.1-4.1c4.5,0.5,7.5,4.9,8.6,9.3c1.1,4.4,0.8,9,1.7,13.4c2.6,12.5,14.8,22.1,14.7,34.9
	c0,6.8-3.7,13.3-3.6,20.1c0.1,5.2,2.2,10.1,3.7,15.1c1.4,5,2,10.7-0.8,15.1c-3.1,4.7-10,7.4-10.2,13.1c-0.2,3.7,2.8,6.8,3.1,10.5
	c0.5,5.2-4.6,9.5-9.8,10.1c-5.7,0.7-10-2.7-15.4-2.9C802.5,644.2,797.7,646.5,792.5,645.9z"/>
<polygon class="st4" points="823.2,576.1 821,574.6 809.5,592.1 809.5,546 806.9,546 806.9,626.8 792.2,611.6 790.3,613.4 
	806.9,630.5 806.9,674.3 809.5,674.3 809.5,596.9 "/>
<path class="st3" d="M962.2,674.3H859.2c-3.5-2.8-6.9-6.6-8.6-10.7c-1.8-4.1-1.7-9.2,1-12.7c2-2.6,5.1-4,7.6-6.2
	c3.4-3.1,5.3-7.5,7.8-11.4c2.5-3.9,6.4-7.5,11-7.3c3.7,0.1,6.9,2.6,10.5,2.9c5.4,0.5,10-3.6,14.9-5.9c8.3-3.9,18.1-2.7,26.9-0.2
	c13.8,3.9,27.3,11.4,34.5,23.8C969.8,655.3,968.1,666.3,962.2,674.3z"/>
<path class="st3" d="M1035.9,657.1c-5.2-0.4-10.6-2.6-13.6-6.9c-3.6-5.1-3.4-12.3-7.4-17.1c-5.7-6.8-18.5-7.5-20-16.2
	c-0.8-4.5,2.3-8.9,6-11.7c3.7-2.8,8.1-4.6,11.5-7.7c6.6-5.9,9-15.6,16.1-21c9.8-7.4,23.7-3.6,35.2,0.6c7.4,2.7,15.1,5.5,21,10.8
	c5.9,5.3,9.8,13.6,7.4,21.2c-1.1,3.5-3.4,6.8-3,10.4c0.3,3.2,2.7,5.8,4,8.8c4,9-2.9,19.7-11.9,23.5c-8.3,3.5-15.9,1.4-24.4,2
	C1049.6,654.2,1043.4,657.7,1035.9,657.1z"/>
<polygon class="st4" points="1064.5,627.8 1062.8,626.4 1051.1,640.2 1051.1,588.3 1048.8,588.3 1048.8,619.7 1038.4,605.3 
	1036.6,606.7 1048.8,623.6 1048.8,674.3 1051.1,674.3 1051.1,643.7 "/>
<path class="st3" d="M26.8,651.4c-6.5,1.7-14,0.9-18.9-3.6c-4.4-4.1-6-10.3-7-16.2c-2-12.2-1.4-26.3,7.7-34.6
	c6.3-5.7,15.7-7.3,23.9-5.2c8.2,2,15.4,7.3,21,13.7c5.5,6.2,9.8,14.2,8.8,22.4c-1.1,9.1-7.5,11.4-14.7,14.1
	C40.7,644.4,34.3,649.4,26.8,651.4z"/>
<g>
	<path class="st4" d="M57.7,674.3c-6.1-20.4-16.7-39.8-30.6-55.9l2.2-1.9c14.2,16.5,24.9,36.2,31.1,57L57.7,674.3z"/>
</g>
<g>
	<path class="st9" d="M1153.8,665.1c-1.9-3.4-5.4-5.4-9-7c-4.3-1.9-8.7-3.2-13.3-4.1c-12.4,3-21.3,10.2-21.3,15.2v2.4
		c0,1.5,1.2,2.7,2.7,2.7h42C1155.5,671.2,1155.4,667.8,1153.8,665.1z"/>
	<path class="st9" d="M1143.1,652.6c-4.1,0-7.9,0.5-11.5,1.4c4.6,0.9,9,2.3,13.3,4.1c3.5,1.6,7.1,3.6,9,7c1.5,2.8,1.7,6.1,1.1,9.2
		h18.3c1.5,0,2.7-1.2,2.7-2.7v-2.4C1175.9,662.8,1161.2,652.6,1143.1,652.6z"/>
</g>
<g>
	<polygon class="st8" points="1248.9,548 1090.5,548 1044.5,628.8 1202.9,628.8 	"/>
	<polygon class="st8" points="1248.9,548 1202.9,628.8 1044.5,628.8 1046.7,633.1 1205.2,633.1 1251.1,552.3 	"/>
</g>
<g>
	<polygon class="st10" points="1121.7,586.1 1129.9,571.7 1138,557.4 1097.1,557.4 1080.7,586.1 	"/>
	<polygon class="st10" points="1078.1,590.7 1061.8,619.3 1102.8,619.3 1111,605 1119.1,590.7 	"/>
	<polygon class="st10" points="1143.3,557.4 1127,586.1 1170.5,586.1 1178.6,571.7 1186.8,557.4 	"/>
	<polygon class="st10" points="1192,557.4 1175.7,586.1 1217.5,586.1 1233.8,557.4 	"/>
	<path class="st12" d="M1241.7,552.8h-47h-5.3h-43.5h-5.3h-46.2l-20,35.2l-20.4,35.9h46.2h5.3h43.5h5.3h47l21.5-37.9l0,0
		L1241.7,552.8z M1151.5,619.3h-43.5l16.3-28.7h43.5L1151.5,619.3z M1102.8,619.3h-41l16.3-28.7h41L1111,605L1102.8,619.3z
		 M1138,557.4l-8.2,14.3l-8.2,14.3h-41l16.3-28.7H1138z M1178.6,571.7l-8.2,14.3H1127l16.3-28.7h43.5L1178.6,571.7z M1175.7,586.1
		l16.3-28.7h41.7l-16.3,28.7H1175.7z M1165,605l8.2-14.3h41.7l-16.3,28.7h-41.7L1165,605z"/>
	<polygon class="st10" points="1214.9,590.7 1173.1,590.7 1165,605 1156.8,619.3 1198.6,619.3 	"/>
	<polygon class="st10" points="1124.4,590.7 1108.1,619.3 1151.5,619.3 1167.8,590.7 	"/>
</g>
<g>
	<path class="st5" d="M1154,633.1h-21.9v2.5c7.4,2.5,14.7,5.4,21.9,8.4V633.1z"/>
	<path class="st5" d="M1132.1,635.6v21c0,3,4.9,5.3,11,5.3c6,0,11-2.4,11-5.3V644C1146.8,641,1139.5,638.2,1132.1,635.6z"/>
</g>
<g>
	<path class="st9" d="M1546.8,665.1c-1.9-3.4-5.4-5.4-9-7c-4.3-1.9-8.7-3.2-13.3-4.1c-12.4,3-21.3,10.2-21.3,15.2v2.4
		c0,1.5,1.2,2.7,2.7,2.7h42C1548.5,671.2,1548.3,667.8,1546.8,665.1z"/>
	<path class="st9" d="M1536,652.6c-4.1,0-7.9,0.5-11.5,1.4c4.6,0.9,9,2.3,13.3,4.1c3.5,1.6,7.1,3.6,9,7c1.5,2.8,1.7,6.1,1.1,9.2
		h18.3c1.5,0,2.7-1.2,2.7-2.7v-2.4C1568.8,662.8,1554.2,652.6,1536,652.6z"/>
</g>
<g>
	<polygon class="st8" points="1641.9,548 1483.4,548 1437.5,628.8 1595.9,628.8 	"/>
	<polygon class="st8" points="1641.9,548 1595.9,628.8 1437.5,628.8 1439.7,633.1 1598.1,633.1 1644.1,552.3 	"/>
</g>
<g>
	<polygon class="st10" points="1514.7,586.1 1522.8,571.7 1531,557.4 1490,557.4 1473.7,586.1 	"/>
	<polygon class="st10" points="1471.1,590.7 1454.8,619.3 1495.8,619.3 1503.9,605 1512.1,590.7 	"/>
	<polygon class="st10" points="1536.3,557.4 1520,586.1 1563.4,586.1 1571.6,571.7 1579.7,557.4 	"/>
	<polygon class="st10" points="1585,557.4 1568.7,586.1 1610.5,586.1 1626.8,557.4 	"/>
	<path class="st12" d="M1634.7,552.8h-47h-5.3h-43.5h-5.3h-46.2l-20,35.2l-20.4,35.9h46.2h5.3h43.5h5.3h47l21.5-37.9l0,0
		L1634.7,552.8z M1544.5,619.3h-43.5l16.3-28.7h43.5L1544.5,619.3z M1495.8,619.3h-41l16.3-28.7h41l-8.2,14.3L1495.8,619.3z
		 M1531,557.4l-8.2,14.3l-8.2,14.3h-41l16.3-28.7H1531z M1571.6,571.7l-8.2,14.3H1520l16.3-28.7h43.5L1571.6,571.7z M1568.7,586.1
		l16.3-28.7h41.7l-16.3,28.7H1568.7z M1558,605l8.2-14.3h41.7l-16.3,28.7h-41.7L1558,605z"/>
	<polygon class="st10" points="1607.9,590.7 1566.1,590.7 1558,605 1549.8,619.3 1591.5,619.3 	"/>
	<polygon class="st10" points="1517.4,590.7 1501.1,619.3 1544.5,619.3 1560.8,590.7 	"/>
</g>
<g>
	<path class="st5" d="M1547,633.1h-21.9v2.5c7.4,2.5,14.7,5.4,21.9,8.4V633.1z"/>
	<path class="st5" d="M1525.1,635.6v21c0,3,4.9,5.3,11,5.3c6,0,11-2.4,11-5.3V644C1539.8,641,1532.5,638.2,1525.1,635.6z"/>
</g>
<g>
	<path class="st9" d="M1310.8,667.1c-1.5-2.6-4.2-4.2-7-5.4c-3.3-1.5-6.8-2.5-10.3-3.2c-9.7,2.3-16.5,7.9-16.5,11.8v1.9
		c0,1.2,0.9,2.1,2.1,2.1h32.6C1312.1,671.9,1312,669.3,1310.8,667.1z"/>
	<path class="st9" d="M1302.5,657.4c-3.1,0-6.1,0.4-8.9,1.1c3.5,0.7,7,1.8,10.3,3.2c2.7,1.2,5.5,2.8,7,5.4c1.2,2.1,1.3,4.7,0.8,7.2
		h14.2c1.2,0,2.1-0.9,2.1-2.1v-1.9C1327.9,665.3,1316.5,657.4,1302.5,657.4z"/>
</g>
<g>
	<polygon class="st8" points="1384.6,576.3 1261.6,576.3 1226,639 1348.9,639 	"/>
	<polygon class="st8" points="1384.6,576.3 1348.9,639 1226,639 1227.7,642.4 1350.6,642.4 1386.3,579.7 	"/>
</g>
<g>
	<polygon class="st10" points="1285.9,605.8 1292.2,594.7 1298.5,583.6 1266.7,583.6 1254.1,605.8 	"/>
	<polygon class="st10" points="1252.1,609.4 1239.4,631.6 1271.2,631.6 1277.5,620.5 1283.9,609.4 	"/>
	<polygon class="st10" points="1302.6,583.6 1290,605.8 1323.7,605.8 1330,594.7 1336.4,583.6 	"/>
	<polygon class="st10" points="1340.5,583.6 1327.8,605.8 1360.2,605.8 1372.9,583.6 	"/>
	<path class="st12" d="M1379,580h-36.5h-4.1h-33.7h-4.1h-35.9l-15.5,27.3l-15.8,27.9h35.9h4.1h33.7h4.1h36.5l16.7-29.4l0,0L1379,580
		z M1309,631.6h-33.7l12.7-22.3h33.7L1309,631.6z M1271.2,631.6h-31.8l12.7-22.3h31.8l-6.3,11.1L1271.2,631.6z M1298.5,583.6
		l-6.3,11.1l-6.3,11.1h-31.8l12.7-22.3H1298.5z M1330,594.7l-6.3,11.1H1290l12.7-22.3h33.7L1330,594.7z M1327.8,605.8l12.7-22.3
		h32.4l-12.7,22.3H1327.8z M1319.5,620.5l6.3-11.1h32.4l-12.7,22.3h-32.4L1319.5,620.5z"/>
	<polygon class="st10" points="1358.2,609.4 1325.8,609.4 1319.5,620.5 1313.1,631.6 1345.5,631.6 	"/>
	<polygon class="st10" points="1288,609.4 1275.3,631.6 1309,631.6 1321.7,609.4 	"/>
</g>
<g>
	<path class="st5" d="M1310.9,642.4h-17v1.9c5.7,2,11.4,4.2,17,6.5V642.4z"/>
	<path class="st5" d="M1294,644.3v16.3c0,2.3,3.8,4.1,8.5,4.1c4.7,0,8.5-1.9,8.5-4.1v-9.7C1305.4,648.4,1299.7,646.2,1294,644.3z"/>
</g>
<g>
	<path class="st8" d="M713.3,674.3c13.5,0,27.6,0,27.6,0V626h-27.6V674.3z"/>
	<path class="st8" d="M696.6,585.9c3.3,10.3,8.4,23.5,16.6,40.1h27.6c-8.2-16.6-13.4-29.8-16.6-40.1H696.6z"/>
</g>
<path class="st5" d="M696.6,585.9c-5.8-18.3-5.6-26.9-5.6-26.9h-58.8c0,0,0.1,3.7-1.5,11.3L696.6,585.9L696.6,585.9z"/>
<path class="st5" d="M696.6,585.9L696.6,585.9l-65.9-15.6c-2.2,10.6-7.5,28.8-20.8,55.7v48.3h47.5H685c0,0,9.8,0,28.3,0V626
	C705.1,609.4,699.9,596.2,696.6,585.9z"/>
<path class="st8" d="M696.6,585.9h27.6c-5.8-18.3-5.6-26.9-5.6-26.9H691C691,559,690.8,567.7,696.6,585.9z"/>
<path class="st5" d="M661.7,628.9L661.7,628.9c7.7,3,13.3,9.7,14.9,17.8l5.6,27.6h-10.1L661.7,628.9z"/>
<path class="st12" d="M653.9,627.2L653.9,627.2c-10.1,0-18.3,8.2-18.3,18.3v28.8h36.6v-28.8C672.2,635.4,664,627.2,653.9,627.2z"/>
<g>
	<path class="st9" d="M661.7,632.6c-2.3-1.3-4.9-2.1-7.8-2.1c-8.6,0-15.5,6.9-15.5,15.5v28.3H654V646
		C654,640.3,657.1,635.3,661.7,632.6z"/>
	<path class="st4" d="M661.7,632.6c-4.6,2.7-7.8,7.7-7.8,13.4v28.3h15.5V646C669.5,640.3,666.4,635.3,661.7,632.6z"/>
</g>
<g>
	<path class="st8" d="M675.4,477.4c-2.7,0-5.2,0.3-7.8,0.7c20.1,3.7,35.4,21.2,35.4,42.4v23h15.5v-23
		C718.6,496.7,699.2,477.4,675.4,477.4z"/>
	<path class="st9" d="M667.6,478.1c-20.1,3.7-35.4,21.2-35.4,42.4v23H703v-23C703,499.4,687.8,481.8,667.6,478.1z"/>
</g>
<g>
	<rect x="628.9" y="543.6" class="st5" width="67.7" height="15.4"/>
	<rect x="696.6" y="543.6" class="st5" width="25.4" height="15.4"/>
</g>
<g>
	<polygon class="st4" points="771.1,428.4 755,406.6 750.2,410.2 763.7,428.4 684.1,487.2 686.7,490.7 	"/>
	
		<rect x="667.7" y="437.4" transform="matrix(0.8043 -0.5942 0.5942 0.8043 -126.2657 513.904)" class="st4" width="98.9" height="22.6"/>
</g>
<path class="st4" d="M670.4,494.3c-1.6-0.2-3.1-0.2-4.6-0.1c-8.3,0.8-15.3,7.2-16.6,15.8c-1.5,10.2,5.5,19.7,15.7,21.2
	c0.3,0,0.6,0.1,1,0.1c9.8,1,18.8-5.9,20.3-15.8C687.6,505.4,680.6,495.8,670.4,494.3z"/>
<g>
	<polygon class="st4" points="652.7,557.2 656.7,554.2 640.7,532.5 556.3,594.8 558.8,598.2 639.2,538.9 	"/>
	
		<rect x="555.8" y="566.3" transform="matrix(0.8043 -0.5942 0.5942 0.8043 -224.7303 472.9701)" class="st4" width="99.9" height="22.8"/>
</g>
<path class="st5" d="M668,512.4l106.9-78.9c1.4-1,1.7-3,0.7-4.4c-1-1.4-3-1.7-4.4-0.7l-106.9,78.9l-78.9-106.9c-1-1.4-3-1.7-4.4-0.7
	c-1.4,1-1.7,3-0.7,4.4L659.2,511L552.3,590c-1.4,1-1.7,3-0.7,4.4c1,1.4,3,1.7,4.4,0.7l106.9-78.9l78.9,106.9c1,1.4,3,1.7,4.4,0.7
	c1.4-1,1.7-3,0.7-4.4L668,512.4z"/>
<g>
	<polygon class="st4" points="708,521.1 706.3,518.8 684.6,534.8 746.9,619.2 750.1,616.9 689.5,534.8 	"/>
	
		<rect x="717.5" y="518" transform="matrix(0.8043 -0.5942 0.5942 0.8043 -195.4348 544.5018)" class="st4" width="23.1" height="102"/>
</g>
<g>
	<polygon class="st4" points="640,490.8 642.8,488.8 580.4,404.4 558.7,420.5 561.5,424.2 580.4,410.2 	"/>
	
		<rect x="588.9" y="407.4" transform="matrix(0.8043 -0.5942 0.5942 0.8043 -154.3053 446.4547)" class="st4" width="23.6" height="100.3"/>
</g>
<g>
	<path class="st8" d="M666.3,493.2c-1.6-0.2-3.1-0.2-4.6-0.1c0.3,0,0.6,0,1,0.1c10.2,1.5,17.2,11,15.7,21.2
		c-1.3,8.6-8.3,15-16.6,15.8c9.8,1,18.8-5.9,20.3-15.8C683.6,504.3,676.5,494.8,666.3,493.2z"/>
	<path class="st8" d="M678.3,514.5c1.5-10.2-5.5-19.7-15.7-21.2c-0.3,0-0.6-0.1-1-0.1c-8.3,0.8-15.3,7.2-16.6,15.8
		c-1.5,10.2,5.5,19.7,15.7,21.2c0.3,0,0.6,0.1,1,0.1C670,529.4,677,523.1,678.3,514.5z"/>
</g>
<ellipse transform="matrix(0.1486 -0.9889 0.9889 0.1486 55.7968 1088.1954)" class="st9" cx="659.9" cy="511.7" rx="8.2" ry="8.2"/>
<g>
	<polygon class="st5" points="1334.4,599.8 1334.4,602.8 1427.1,613 1427.1,599.8 	"/>
	<polygon class="st5" points="1334.4,674.3 1427.1,674.3 1427.1,613 1334.4,602.8 	"/>
</g>
<rect x="1442.9" y="519.4" class="st5" width="29.3" height="13.1"/>
<rect x="1461.5" y="519.4" class="st8" width="10.7" height="13.1"/>
<g>
	<polygon class="st4" points="1350.5,532.3 1483,532.3 1523.1,599.8 1390.6,599.8 	"/>
</g>
<g>
	<polygon class="st8" points="1508.4,599.8 1476.5,543.7 1444.6,599.8 1427.1,599.8 1427.1,613 1508.4,658.3 	"/>
	<polygon class="st8" points="1427.1,613 1427.1,674.3 1508.4,674.3 1508.4,658.3 	"/>
</g>
<rect x="1472.6" y="625" class="st13" width="29.8" height="49.3"/>
<g>
	<polygon class="st9" points="1483,532.3 1350.5,532.3 1312.1,599.8 1444.6,599.8 	"/>
</g>
<g>
	<rect x="1343.9" y="617" class="st10" width="74.9" height="26.9"/>
	<path class="st12" d="M1341.6,614.7v31.5h79.5v-31.5H1341.6z M1418.8,643.8h-74.9V617h74.9V643.8z"/>
</g>
<g>
	<rect x="1438.9" y="617" class="st10" width="23.8" height="26.9"/>
	<path class="st12" d="M1436.6,614.7v31.5h28.4v-31.5H1436.6z M1462.7,643.8h-23.8V617h23.8V643.8z"/>
</g>
<g>
	<path class="st10" d="M1488.4,588.5c0-7.1-5.8-12.9-12.9-12.9c-7.1,0-12.9,5.8-12.9,12.9c0,7.1,5.8,12.9,12.9,12.9
		C1482.7,601.4,1488.4,595.6,1488.4,588.5z"/>
	<path class="st12" d="M1475.6,573.7c-8.2,0-14.9,6.7-14.9,14.9c0,8.2,6.7,14.9,14.9,14.9s14.9-6.7,14.9-14.9
		C1490.5,580.3,1483.8,573.7,1475.6,573.7z M1462.7,588.5c0-7.1,5.8-12.9,12.9-12.9c7.1,0,12.9,5.8,12.9,12.9
		c0,7.1-5.8,12.9-12.9,12.9C1468.5,601.4,1462.7,595.6,1462.7,588.5z"/>
</g>
<polygon class="st5" points="1462.9,540.6 1457.2,542.8 1432.5,542.8 1428.9,542.8 1399.1,542.8 1395.5,542.8 1363.9,542.8 
	1350.2,566.9 1338.2,587.8 1334.4,589.3 1336.2,591.5 1367.8,591.5 1371.5,591.5 1401.2,591.5 1404.8,591.5 1437,591.5 
	1451.7,565.5 1464.7,542.8 "/>
<g>
	<polygon class="st10" points="1380.8,563.4 1386.4,553.6 1391.9,543.8 1363.9,543.8 1352.7,563.4 	"/>
	<polygon class="st10" points="1350.9,566.5 1339.8,586.2 1367.8,586.2 1373.4,576.4 1379,566.5 	"/>
	<polygon class="st10" points="1395.5,543.8 1384.4,563.4 1414.1,563.4 1419.7,553.6 1425.3,543.8 	"/>
	<polygon class="st10" points="1428.9,543.8 1417.7,563.4 1446.3,563.4 1457.5,543.8 	"/>
	<path class="st12" d="M1462.9,540.6h-32.2h-3.6h-29.7h-3.6h-31.7l-13.7,24.1l-14,24.6h31.7h3.6h29.7h3.6h32.2l14.7-25.9l0,0
		L1462.9,540.6z M1401.2,586.2h-29.7l11.2-19.6h29.7L1401.2,586.2z M1367.8,586.2h-28l11.2-19.6h28l-5.6,9.8L1367.8,586.2z
		 M1391.9,543.8l-5.6,9.8l-5.6,9.8h-28l11.2-19.6H1391.9z M1419.7,553.6l-5.6,9.8h-29.7l11.2-19.6h29.7L1419.7,553.6z M1417.7,563.4
		l11.2-19.6h28.6l-11.2,19.6H1417.7z M1410.4,576.4l5.6-9.8h28.6l-11.2,19.6h-28.6L1410.4,576.4z"/>
	<polygon class="st10" points="1444.5,566.5 1416,566.5 1410.4,576.4 1404.8,586.2 1433.4,586.2 	"/>
	<polygon class="st10" points="1382.6,566.5 1371.4,586.2 1401.2,586.2 1412.3,566.5 	"/>
</g>
<g>
	<path class="st4" d="M1488.3,640.4c2.2,4.1,4.2,8.3,6.1,12.6c2.4,5.4,4.6,11,6.3,16.7v-25.9
		C1496.6,642.6,1492.5,641.5,1488.3,640.4z"/>
	<path class="st4" d="M1500.7,643.8v-16.6H1481c2.5,4.4,4.9,8.8,7.3,13.3C1492.5,641.5,1496.6,642.6,1500.7,643.8z"/>
	<path class="st4" d="M1481,627.2h-6.8v10.1c4.7,1,9.4,2,14.1,3.2C1486,636,1483.5,631.6,1481,627.2z"/>
	<path class="st4" d="M1488.3,640.4c-4.7-1.2-9.4-2.2-14.1-3.2v37h26.5v-4.6c-1.8-5.7-3.9-11.2-6.3-16.7
		C1492.5,648.8,1490.5,644.6,1488.3,640.4z"/>
</g>
<polygon class="st9" points="276.2,588.6 276.2,674.3 477.3,674.3 477.3,597.6 "/>
<polygon class="st9" points="477.3,581.1 276.2,581.1 276.2,588.6 477.3,597.6 "/>
<polygon class="st8" points="477.3,581.1 477.3,597.6 529.8,622.5 529.8,581.1 "/>
<polygon class="st8" points="477.3,674.3 529.8,674.3 529.8,622.5 477.3,597.6 "/>
<g>
	<rect x="128.7" y="578.3" class="st4" width="2.6" height="20.1"/>
	<rect x="134.3" y="578.3" class="st4" width="2.6" height="20.1"/>
	<rect x="139.8" y="578.3" class="st4" width="2.6" height="20.1"/>
	<rect x="210.5" y="578.3" class="st4" width="2.6" height="20.1"/>
	<rect x="216" y="578.3" class="st4" width="2.6" height="20.1"/>
	<rect x="221.6" y="578.3" class="st4" width="2.6" height="20.1"/>
</g>
<rect x="287" y="582.5" class="st10" width="42.8" height="85.1"/>
<rect x="332.7" y="582.5" class="st10" width="42.8" height="85.1"/>
<rect x="378.4" y="582.5" class="st10" width="42.8" height="85.1"/>
<rect x="424.1" y="582.5" class="st10" width="42.8" height="85.1"/>
<path class="st11" d="M424.1,579.6h-2.9h-42.8h-2.9h-42.8h-2.9h-45.7v90.9h45.7h2.9h42.8h2.9h42.8h2.9h45.7v-90.9H424.1z
	 M466.8,667.6h-42.8v-85.1h42.8V667.6z M421.2,667.6h-42.8v-85.1h42.8V667.6z M375.5,667.6h-42.8v-85.1h42.8V667.6z M329.8,667.6
	H287v-85.1h42.8V667.6z"/>
<rect x="164.8" y="490" class="st4" width="5.3" height="16.9"/>
<rect x="118.5" y="563" class="st9" width="34.1" height="16"/>
<rect x="118.5" y="597.6" class="st9" width="34.1" height="76.7"/>
<rect x="152.6" y="563" class="st5" width="14.4" height="16"/>
<rect x="152.6" y="597.6" class="st5" width="14.4" height="76.7"/>
<rect x="124.3" y="605.6" class="st11" width="22.6" height="10.5"/>
<rect x="121.4" y="579" class="st4" width="2.9" height="18.6"/>
<rect x="160.8" y="579" class="st4" width="2.9" height="18.6"/>
<rect x="200.3" y="563" class="st9" width="34.1" height="16"/>
<rect x="200.3" y="597.6" class="st9" width="34.1" height="76.7"/>
<rect x="234.4" y="563" class="st5" width="14.4" height="16"/>
<rect x="234.4" y="597.6" class="st5" width="14.4" height="76.7"/>
<rect x="206" y="605.6" class="st11" width="22.6" height="10.5"/>
<rect x="203.1" y="579" class="st4" width="2.9" height="18.6"/>
<rect x="242.6" y="579" class="st4" width="2.9" height="18.6"/>
<rect x="261.4" y="551.5" class="st5" width="283.2" height="32.5"/>
<rect x="484.8" y="551.5" class="st8" width="59.8" height="32.5"/>
<rect x="245.6" y="490" class="st4" width="5.3" height="16.9"/>
<g>
	<path class="st8" d="M269.1,455.8c-0.6-3.5-2.3-6.6-4.2-9.6l-120.5-29.6c-9.3-2.3-17.5,6.4-14.8,15.5l14.7,49.1
		c1.6,5.2,6.4,8.8,11.8,8.8H263c1.5-6.4,3.1-12.7,4.6-19.1C268.8,465.9,270,460.8,269.1,455.8z"/>
	<path class="st8" d="M271.6,447.8l-6.7-1.6c1.9,3,3.5,6.2,4.2,9.6c0.9,5-0.3,10.1-1.5,15.1c-1.5,6.4-3.1,12.7-4.6,19.1h2
		c5.8,0,10.9-4.1,12.1-9.8l3.8-17.8C282.1,455.8,278.1,449.4,271.6,447.8z"/>
</g>
<g>
	<rect x="178.6" y="525.9" class="st4" width="10" height="148.4"/>
	<rect x="450.8" y="525.9" class="st4" width="10" height="148.4"/>
</g>
<rect x="147" y="506.9" class="st9" width="281.9" height="19"/>
<rect x="428.9" y="506.9" class="st8" width="63.5" height="19"/>
<path class="st3" d="M924.8,574.5c2.1-6.8,6.2-13.3,12.5-16.6c9.1-4.8,20.6-2,29.5,3.2c11.7,6.8,21.3,17.7,24.4,30.9
	c3.1,13.1-1.4,28.3-12.4,36.1C947.9,650,916.6,601.4,924.8,574.5z"/>
<g>
	<path class="st4" d="M934.9,674.3l-2.9-0.4c4.8-35.3,13.4-70.1,25.5-103.6l2.7,1c-11.6,31.9-20,65.1-24.8,98.8l0.1,0L934.9,674.3z"
		/>
</g>
<path class="st3" d="M730.5,648.3c-5.9-4.5-8.3-12.5-8.5-19.9c-0.4-13,4.7-26,13.8-35.3c3.1-3.1,6.8-6,11.2-6.4
	c6.2-0.7,11.9,3.4,15.9,8.1c6.5,7.6,10.3,17.3,12.8,27c1.6,6.2,2.7,12.6,1.3,18.8c-1.4,6.2-5.9,12-12.1,13.4
	c-7.4,1.6-10.6-5.7-16.5-5.9C741.6,647.8,738,654,730.5,648.3z"/>
<g>
	
		<rect x="748.3" y="618.2" transform="matrix(0.9987 -5.013920e-02 5.013920e-02 0.9987 -31.4589 38.4039)" class="st4" width="2.9" height="56"/>
</g>
<path class="st3" d="M1626.8,674.3h-71.8c-2.4-2-4.8-4.6-6-7.5c-1.2-2.9-1.2-6.4,0.7-8.9c1.4-1.8,3.6-2.8,5.3-4.3
	c2.4-2.2,3.7-5.2,5.4-7.9c1.8-2.7,4.5-5.2,7.7-5.1c2.5,0.1,4.8,1.8,7.3,2c3.8,0.4,7-2.5,10.4-4.1c5.8-2.7,12.6-1.9,18.7-0.1
	c9.6,2.7,19.1,8,24.1,16.6C1632.1,661,1630.9,668.7,1626.8,674.3z"/>
</svg>
