<?xml version="1.0" encoding="utf-8"?>
<!-- Generator: Adobe Illustrator 21.0.0, SVG Export Plug-In . SVG Version: 6.00 Build 0)  -->
<svg version="1.1" id="Capa_1" xmlns="http://www.w3.org/2000/svg" xmlns:xlink="http://www.w3.org/1999/xlink" x="0px" y="0px"
	 viewBox="0 0 49.7 49.7" style="enable-background:new 0 0 49.7 49.7;" xml:space="preserve">
<style type="text/css">
	.st0{fill:#34C92F;}
	.st1{fill:none;}
</style>
<g>
	<g>
		<g>
			<path class="st0" d="M24.8,0C11.1,0,0,11.1,0,24.8s11.1,24.8,24.8,24.8s24.8-11.1,24.8-24.8C49.7,11.1,38.5,0,24.8,0z M21.6,40.5
				l2.9-12.3h-8.4l6.2-15.9l0.4-1.2h7.9l-0.5,1.2l-4.3,10.4h7.8L21.6,40.5z"/>
		</g>
	</g>
</g>
<g>
	<g>
		<g>
			<path class="st0" d="M171.8-0.5c-13.7,0-24.8,11.1-24.8,24.8s11.1,24.8,24.8,24.8s24.8-11.1,24.8-24.8
				C196.7,10.6,185.5-0.5,171.8-0.5z M168.6,40l2.9-12.3h-8.4l6.2-15.9l0.4-1.2h7.9l-0.5,1.2l-4.3,10.4h7.8L168.6,40z"/>
		</g>
	</g>
</g>
<rect x="205" y="10.9" class="st1" width="108.3" height="26.8"/>
<text transform="matrix(1 0 0 1 206.5146 36.8391)" style="font-family:'Raiderfont'; font-size:34px;">VISIV</text>
</svg>
