<?xml version="1.0" encoding="utf-8"?>
<!-- Generator: Adobe Illustrator 21.0.0, SVG Export Plug-In . SVG Version: 6.00 Build 0)  -->
<svg version="1.1" id="Capa_1" xmlns="http://www.w3.org/2000/svg" xmlns:xlink="http://www.w3.org/1999/xlink" x="0px" y="0px"
	 viewBox="0 0 47.3 47.3" style="enable-background:new 0 0 47.3 47.3;" xml:space="preserve">
<style type="text/css">
	.st0{fill:#FFFFFF;}
</style>
<g>
	<g>
		<g>
			<path class="st0" d="M16.7,43.2c0,2.3,1.9,4.1,4.2,4.1h5.6c2.3,0,4.2-1.8,4.2-4.1v-1.9H16.7L16.7,43.2L16.7,43.2z"/>
			<path class="st0" d="M35.8,23.1c1.8-2.5,2.7-5.4,2.7-8.4C38.6,6.6,31.9,0,23.6,0C15.4,0,8.7,6.6,8.7,14.6c0,2.9,0.9,5.7,2.5,8.1
				c0.1,0.1,0.2,0.3,0.2,0.4c2.8,3.9,3.3,5.1,3.3,5.9v2.8H14c-0.7,0-1.2,0.3-1.2,1.1v5.3c0,0.8,0.6,1.2,1.2,1.2h19.3
				c0.7,0,1.2-0.4,1.2-1.2v-5.3c0-0.8-0.6-1.1-1.2-1.1h-0.7V29C32.5,28.3,32.8,27.3,35.8,23.1z"/>
		</g>
	</g>
</g>
</svg>
