<svg xmlns="http://www.w3.org/2000/svg" viewBox="0 0 168.5 49.6"><defs><style>.cls-1{fill:#34c92f;}.cls-2{fill:#32323e;}</style></defs><title>visiv-logo</title><g id="Layer_2" data-name="Layer 2"><g id="Capa_1" data-name="Capa 1"><path class="cls-1" d="M24.8,0A24.8,24.8,0,1,0,49.6,24.8,24.8,24.8,0,0,0,24.8,0ZM21.6,40.5l2.9-12.3H16.1l6.2-15.9.4-1.2h7.9l-.5,1.2L25.8,22.7h7.8Z"/><path class="cls-2" d="M65.49,13h9.45l4.18,14.54L82.87,13h9.28L82.9,37.31H74.77Z"/><path class="cls-2" d="M95,13h8.88v24.3H95Z"/><path class="cls-2" d="M110.15,29a19.88,19.88,0,0,0,2.71,1.36,7.17,7.17,0,0,0,2.74.61,2.53,2.53,0,0,0,1.42-.34,1.06,1.06,0,0,0,.51-.92q0-1-2.57-1.56l-.74-.13-.56-.13a7.55,7.55,0,0,1-4.18-2.33A6.33,6.33,0,0,1,108,21.29a8.08,8.08,0,0,1,2.79-6.36,10.7,10.7,0,0,1,7.37-2.47,18.5,18.5,0,0,1,8.92,2.62l-3.74,5.74a8.36,8.36,0,0,0-2.17-1.21,6.74,6.74,0,0,0-2.47-.5q-1.91,0-1.91,1.16t3.64,1.79q.55.15.9.22a7,7,0,0,1,4,2.31,6.4,6.4,0,0,1,1.43,4.22,8.35,8.35,0,0,1-2.92,6.6A11.13,11.13,0,0,1,116.25,38a19.09,19.09,0,0,1-9.55-2.72Z"/><path class="cls-2" d="M130.4,13h8.88v24.3H130.4Z"/><path class="cls-2" d="M141.84,13h9.45l4.18,14.54L159.22,13h9.28l-9.25,24.3h-8.13Z"/></g></g></svg>